G04 #@! TF.GenerationSoftware,KiCad,Pcbnew,(5.0.2)-1*
G04 #@! TF.CreationDate,2019-06-19T11:59:55+10:00*
G04 #@! TF.ProjectId,C-Beeper,432d4265-6570-4657-922e-6b696361645f,rev?*
G04 #@! TF.SameCoordinates,Original*
G04 #@! TF.FileFunction,Paste,Top*
G04 #@! TF.FilePolarity,Positive*
%FSLAX46Y46*%
G04 Gerber Fmt 4.6, Leading zero omitted, Abs format (unit mm)*
G04 Created by KiCad (PCBNEW (5.0.2)-1) date 19/06/2019 11:59:55 AM*
%MOMM*%
%LPD*%
G01*
G04 APERTURE LIST*
%ADD10R,1.075000X1.400000*%
%ADD11C,0.100000*%
%ADD12C,1.150000*%
%ADD13R,0.900000X0.800000*%
%ADD14R,0.800000X0.900000*%
G04 APERTURE END LIST*
D10*
G04 #@! TO.C,C1*
X160722500Y-95250000D03*
X164397500Y-95250000D03*
G04 #@! TD*
D11*
G04 #@! TO.C,C2*
G36*
X188434505Y-84271204D02*
X188458773Y-84274804D01*
X188482572Y-84280765D01*
X188505671Y-84289030D01*
X188527850Y-84299520D01*
X188548893Y-84312132D01*
X188568599Y-84326747D01*
X188586777Y-84343223D01*
X188603253Y-84361401D01*
X188617868Y-84381107D01*
X188630480Y-84402150D01*
X188640970Y-84424329D01*
X188649235Y-84447428D01*
X188655196Y-84471227D01*
X188658796Y-84495495D01*
X188660000Y-84519999D01*
X188660000Y-85170001D01*
X188658796Y-85194505D01*
X188655196Y-85218773D01*
X188649235Y-85242572D01*
X188640970Y-85265671D01*
X188630480Y-85287850D01*
X188617868Y-85308893D01*
X188603253Y-85328599D01*
X188586777Y-85346777D01*
X188568599Y-85363253D01*
X188548893Y-85377868D01*
X188527850Y-85390480D01*
X188505671Y-85400970D01*
X188482572Y-85409235D01*
X188458773Y-85415196D01*
X188434505Y-85418796D01*
X188410001Y-85420000D01*
X187509999Y-85420000D01*
X187485495Y-85418796D01*
X187461227Y-85415196D01*
X187437428Y-85409235D01*
X187414329Y-85400970D01*
X187392150Y-85390480D01*
X187371107Y-85377868D01*
X187351401Y-85363253D01*
X187333223Y-85346777D01*
X187316747Y-85328599D01*
X187302132Y-85308893D01*
X187289520Y-85287850D01*
X187279030Y-85265671D01*
X187270765Y-85242572D01*
X187264804Y-85218773D01*
X187261204Y-85194505D01*
X187260000Y-85170001D01*
X187260000Y-84519999D01*
X187261204Y-84495495D01*
X187264804Y-84471227D01*
X187270765Y-84447428D01*
X187279030Y-84424329D01*
X187289520Y-84402150D01*
X187302132Y-84381107D01*
X187316747Y-84361401D01*
X187333223Y-84343223D01*
X187351401Y-84326747D01*
X187371107Y-84312132D01*
X187392150Y-84299520D01*
X187414329Y-84289030D01*
X187437428Y-84280765D01*
X187461227Y-84274804D01*
X187485495Y-84271204D01*
X187509999Y-84270000D01*
X188410001Y-84270000D01*
X188434505Y-84271204D01*
X188434505Y-84271204D01*
G37*
D12*
X187960000Y-84845000D03*
D11*
G36*
X188434505Y-82221204D02*
X188458773Y-82224804D01*
X188482572Y-82230765D01*
X188505671Y-82239030D01*
X188527850Y-82249520D01*
X188548893Y-82262132D01*
X188568599Y-82276747D01*
X188586777Y-82293223D01*
X188603253Y-82311401D01*
X188617868Y-82331107D01*
X188630480Y-82352150D01*
X188640970Y-82374329D01*
X188649235Y-82397428D01*
X188655196Y-82421227D01*
X188658796Y-82445495D01*
X188660000Y-82469999D01*
X188660000Y-83120001D01*
X188658796Y-83144505D01*
X188655196Y-83168773D01*
X188649235Y-83192572D01*
X188640970Y-83215671D01*
X188630480Y-83237850D01*
X188617868Y-83258893D01*
X188603253Y-83278599D01*
X188586777Y-83296777D01*
X188568599Y-83313253D01*
X188548893Y-83327868D01*
X188527850Y-83340480D01*
X188505671Y-83350970D01*
X188482572Y-83359235D01*
X188458773Y-83365196D01*
X188434505Y-83368796D01*
X188410001Y-83370000D01*
X187509999Y-83370000D01*
X187485495Y-83368796D01*
X187461227Y-83365196D01*
X187437428Y-83359235D01*
X187414329Y-83350970D01*
X187392150Y-83340480D01*
X187371107Y-83327868D01*
X187351401Y-83313253D01*
X187333223Y-83296777D01*
X187316747Y-83278599D01*
X187302132Y-83258893D01*
X187289520Y-83237850D01*
X187279030Y-83215671D01*
X187270765Y-83192572D01*
X187264804Y-83168773D01*
X187261204Y-83144505D01*
X187260000Y-83120001D01*
X187260000Y-82469999D01*
X187261204Y-82445495D01*
X187264804Y-82421227D01*
X187270765Y-82397428D01*
X187279030Y-82374329D01*
X187289520Y-82352150D01*
X187302132Y-82331107D01*
X187316747Y-82311401D01*
X187333223Y-82293223D01*
X187351401Y-82276747D01*
X187371107Y-82262132D01*
X187392150Y-82249520D01*
X187414329Y-82239030D01*
X187437428Y-82230765D01*
X187461227Y-82224804D01*
X187485495Y-82221204D01*
X187509999Y-82220000D01*
X188410001Y-82220000D01*
X188434505Y-82221204D01*
X188434505Y-82221204D01*
G37*
D12*
X187960000Y-82795000D03*
G04 #@! TD*
D13*
G04 #@! TO.C,Q1*
X167370000Y-88900000D03*
X165370000Y-89850000D03*
X165370000Y-87950000D03*
G04 #@! TD*
D14*
G04 #@! TO.C,Q2*
X170500000Y-89900000D03*
X172400000Y-89900000D03*
X171450000Y-87900000D03*
G04 #@! TD*
G04 #@! TO.C,Q3*
X182560000Y-87900000D03*
X180660000Y-87900000D03*
X181610000Y-89900000D03*
G04 #@! TD*
D11*
G04 #@! TO.C,R1*
G36*
X162664505Y-89471204D02*
X162688773Y-89474804D01*
X162712572Y-89480765D01*
X162735671Y-89489030D01*
X162757850Y-89499520D01*
X162778893Y-89512132D01*
X162798599Y-89526747D01*
X162816777Y-89543223D01*
X162833253Y-89561401D01*
X162847868Y-89581107D01*
X162860480Y-89602150D01*
X162870970Y-89624329D01*
X162879235Y-89647428D01*
X162885196Y-89671227D01*
X162888796Y-89695495D01*
X162890000Y-89719999D01*
X162890000Y-90620001D01*
X162888796Y-90644505D01*
X162885196Y-90668773D01*
X162879235Y-90692572D01*
X162870970Y-90715671D01*
X162860480Y-90737850D01*
X162847868Y-90758893D01*
X162833253Y-90778599D01*
X162816777Y-90796777D01*
X162798599Y-90813253D01*
X162778893Y-90827868D01*
X162757850Y-90840480D01*
X162735671Y-90850970D01*
X162712572Y-90859235D01*
X162688773Y-90865196D01*
X162664505Y-90868796D01*
X162640001Y-90870000D01*
X161989999Y-90870000D01*
X161965495Y-90868796D01*
X161941227Y-90865196D01*
X161917428Y-90859235D01*
X161894329Y-90850970D01*
X161872150Y-90840480D01*
X161851107Y-90827868D01*
X161831401Y-90813253D01*
X161813223Y-90796777D01*
X161796747Y-90778599D01*
X161782132Y-90758893D01*
X161769520Y-90737850D01*
X161759030Y-90715671D01*
X161750765Y-90692572D01*
X161744804Y-90668773D01*
X161741204Y-90644505D01*
X161740000Y-90620001D01*
X161740000Y-89719999D01*
X161741204Y-89695495D01*
X161744804Y-89671227D01*
X161750765Y-89647428D01*
X161759030Y-89624329D01*
X161769520Y-89602150D01*
X161782132Y-89581107D01*
X161796747Y-89561401D01*
X161813223Y-89543223D01*
X161831401Y-89526747D01*
X161851107Y-89512132D01*
X161872150Y-89499520D01*
X161894329Y-89489030D01*
X161917428Y-89480765D01*
X161941227Y-89474804D01*
X161965495Y-89471204D01*
X161989999Y-89470000D01*
X162640001Y-89470000D01*
X162664505Y-89471204D01*
X162664505Y-89471204D01*
G37*
D12*
X162315000Y-90170000D03*
D11*
G36*
X160614505Y-89471204D02*
X160638773Y-89474804D01*
X160662572Y-89480765D01*
X160685671Y-89489030D01*
X160707850Y-89499520D01*
X160728893Y-89512132D01*
X160748599Y-89526747D01*
X160766777Y-89543223D01*
X160783253Y-89561401D01*
X160797868Y-89581107D01*
X160810480Y-89602150D01*
X160820970Y-89624329D01*
X160829235Y-89647428D01*
X160835196Y-89671227D01*
X160838796Y-89695495D01*
X160840000Y-89719999D01*
X160840000Y-90620001D01*
X160838796Y-90644505D01*
X160835196Y-90668773D01*
X160829235Y-90692572D01*
X160820970Y-90715671D01*
X160810480Y-90737850D01*
X160797868Y-90758893D01*
X160783253Y-90778599D01*
X160766777Y-90796777D01*
X160748599Y-90813253D01*
X160728893Y-90827868D01*
X160707850Y-90840480D01*
X160685671Y-90850970D01*
X160662572Y-90859235D01*
X160638773Y-90865196D01*
X160614505Y-90868796D01*
X160590001Y-90870000D01*
X159939999Y-90870000D01*
X159915495Y-90868796D01*
X159891227Y-90865196D01*
X159867428Y-90859235D01*
X159844329Y-90850970D01*
X159822150Y-90840480D01*
X159801107Y-90827868D01*
X159781401Y-90813253D01*
X159763223Y-90796777D01*
X159746747Y-90778599D01*
X159732132Y-90758893D01*
X159719520Y-90737850D01*
X159709030Y-90715671D01*
X159700765Y-90692572D01*
X159694804Y-90668773D01*
X159691204Y-90644505D01*
X159690000Y-90620001D01*
X159690000Y-89719999D01*
X159691204Y-89695495D01*
X159694804Y-89671227D01*
X159700765Y-89647428D01*
X159709030Y-89624329D01*
X159719520Y-89602150D01*
X159732132Y-89581107D01*
X159746747Y-89561401D01*
X159763223Y-89543223D01*
X159781401Y-89526747D01*
X159801107Y-89512132D01*
X159822150Y-89499520D01*
X159844329Y-89489030D01*
X159867428Y-89480765D01*
X159891227Y-89474804D01*
X159915495Y-89471204D01*
X159939999Y-89470000D01*
X160590001Y-89470000D01*
X160614505Y-89471204D01*
X160614505Y-89471204D01*
G37*
D12*
X160265000Y-90170000D03*
G04 #@! TD*
D11*
G04 #@! TO.C,R2*
G36*
X165574505Y-84271204D02*
X165598773Y-84274804D01*
X165622572Y-84280765D01*
X165645671Y-84289030D01*
X165667850Y-84299520D01*
X165688893Y-84312132D01*
X165708599Y-84326747D01*
X165726777Y-84343223D01*
X165743253Y-84361401D01*
X165757868Y-84381107D01*
X165770480Y-84402150D01*
X165780970Y-84424329D01*
X165789235Y-84447428D01*
X165795196Y-84471227D01*
X165798796Y-84495495D01*
X165800000Y-84519999D01*
X165800000Y-85170001D01*
X165798796Y-85194505D01*
X165795196Y-85218773D01*
X165789235Y-85242572D01*
X165780970Y-85265671D01*
X165770480Y-85287850D01*
X165757868Y-85308893D01*
X165743253Y-85328599D01*
X165726777Y-85346777D01*
X165708599Y-85363253D01*
X165688893Y-85377868D01*
X165667850Y-85390480D01*
X165645671Y-85400970D01*
X165622572Y-85409235D01*
X165598773Y-85415196D01*
X165574505Y-85418796D01*
X165550001Y-85420000D01*
X164649999Y-85420000D01*
X164625495Y-85418796D01*
X164601227Y-85415196D01*
X164577428Y-85409235D01*
X164554329Y-85400970D01*
X164532150Y-85390480D01*
X164511107Y-85377868D01*
X164491401Y-85363253D01*
X164473223Y-85346777D01*
X164456747Y-85328599D01*
X164442132Y-85308893D01*
X164429520Y-85287850D01*
X164419030Y-85265671D01*
X164410765Y-85242572D01*
X164404804Y-85218773D01*
X164401204Y-85194505D01*
X164400000Y-85170001D01*
X164400000Y-84519999D01*
X164401204Y-84495495D01*
X164404804Y-84471227D01*
X164410765Y-84447428D01*
X164419030Y-84424329D01*
X164429520Y-84402150D01*
X164442132Y-84381107D01*
X164456747Y-84361401D01*
X164473223Y-84343223D01*
X164491401Y-84326747D01*
X164511107Y-84312132D01*
X164532150Y-84299520D01*
X164554329Y-84289030D01*
X164577428Y-84280765D01*
X164601227Y-84274804D01*
X164625495Y-84271204D01*
X164649999Y-84270000D01*
X165550001Y-84270000D01*
X165574505Y-84271204D01*
X165574505Y-84271204D01*
G37*
D12*
X165100000Y-84845000D03*
D11*
G36*
X165574505Y-82221204D02*
X165598773Y-82224804D01*
X165622572Y-82230765D01*
X165645671Y-82239030D01*
X165667850Y-82249520D01*
X165688893Y-82262132D01*
X165708599Y-82276747D01*
X165726777Y-82293223D01*
X165743253Y-82311401D01*
X165757868Y-82331107D01*
X165770480Y-82352150D01*
X165780970Y-82374329D01*
X165789235Y-82397428D01*
X165795196Y-82421227D01*
X165798796Y-82445495D01*
X165800000Y-82469999D01*
X165800000Y-83120001D01*
X165798796Y-83144505D01*
X165795196Y-83168773D01*
X165789235Y-83192572D01*
X165780970Y-83215671D01*
X165770480Y-83237850D01*
X165757868Y-83258893D01*
X165743253Y-83278599D01*
X165726777Y-83296777D01*
X165708599Y-83313253D01*
X165688893Y-83327868D01*
X165667850Y-83340480D01*
X165645671Y-83350970D01*
X165622572Y-83359235D01*
X165598773Y-83365196D01*
X165574505Y-83368796D01*
X165550001Y-83370000D01*
X164649999Y-83370000D01*
X164625495Y-83368796D01*
X164601227Y-83365196D01*
X164577428Y-83359235D01*
X164554329Y-83350970D01*
X164532150Y-83340480D01*
X164511107Y-83327868D01*
X164491401Y-83313253D01*
X164473223Y-83296777D01*
X164456747Y-83278599D01*
X164442132Y-83258893D01*
X164429520Y-83237850D01*
X164419030Y-83215671D01*
X164410765Y-83192572D01*
X164404804Y-83168773D01*
X164401204Y-83144505D01*
X164400000Y-83120001D01*
X164400000Y-82469999D01*
X164401204Y-82445495D01*
X164404804Y-82421227D01*
X164410765Y-82397428D01*
X164419030Y-82374329D01*
X164429520Y-82352150D01*
X164442132Y-82331107D01*
X164456747Y-82311401D01*
X164473223Y-82293223D01*
X164491401Y-82276747D01*
X164511107Y-82262132D01*
X164532150Y-82249520D01*
X164554329Y-82239030D01*
X164577428Y-82230765D01*
X164601227Y-82224804D01*
X164625495Y-82221204D01*
X164649999Y-82220000D01*
X165550001Y-82220000D01*
X165574505Y-82221204D01*
X165574505Y-82221204D01*
G37*
D12*
X165100000Y-82795000D03*
G04 #@! TD*
D11*
G04 #@! TO.C,R3*
G36*
X162664505Y-84391204D02*
X162688773Y-84394804D01*
X162712572Y-84400765D01*
X162735671Y-84409030D01*
X162757850Y-84419520D01*
X162778893Y-84432132D01*
X162798599Y-84446747D01*
X162816777Y-84463223D01*
X162833253Y-84481401D01*
X162847868Y-84501107D01*
X162860480Y-84522150D01*
X162870970Y-84544329D01*
X162879235Y-84567428D01*
X162885196Y-84591227D01*
X162888796Y-84615495D01*
X162890000Y-84639999D01*
X162890000Y-85540001D01*
X162888796Y-85564505D01*
X162885196Y-85588773D01*
X162879235Y-85612572D01*
X162870970Y-85635671D01*
X162860480Y-85657850D01*
X162847868Y-85678893D01*
X162833253Y-85698599D01*
X162816777Y-85716777D01*
X162798599Y-85733253D01*
X162778893Y-85747868D01*
X162757850Y-85760480D01*
X162735671Y-85770970D01*
X162712572Y-85779235D01*
X162688773Y-85785196D01*
X162664505Y-85788796D01*
X162640001Y-85790000D01*
X161989999Y-85790000D01*
X161965495Y-85788796D01*
X161941227Y-85785196D01*
X161917428Y-85779235D01*
X161894329Y-85770970D01*
X161872150Y-85760480D01*
X161851107Y-85747868D01*
X161831401Y-85733253D01*
X161813223Y-85716777D01*
X161796747Y-85698599D01*
X161782132Y-85678893D01*
X161769520Y-85657850D01*
X161759030Y-85635671D01*
X161750765Y-85612572D01*
X161744804Y-85588773D01*
X161741204Y-85564505D01*
X161740000Y-85540001D01*
X161740000Y-84639999D01*
X161741204Y-84615495D01*
X161744804Y-84591227D01*
X161750765Y-84567428D01*
X161759030Y-84544329D01*
X161769520Y-84522150D01*
X161782132Y-84501107D01*
X161796747Y-84481401D01*
X161813223Y-84463223D01*
X161831401Y-84446747D01*
X161851107Y-84432132D01*
X161872150Y-84419520D01*
X161894329Y-84409030D01*
X161917428Y-84400765D01*
X161941227Y-84394804D01*
X161965495Y-84391204D01*
X161989999Y-84390000D01*
X162640001Y-84390000D01*
X162664505Y-84391204D01*
X162664505Y-84391204D01*
G37*
D12*
X162315000Y-85090000D03*
D11*
G36*
X160614505Y-84391204D02*
X160638773Y-84394804D01*
X160662572Y-84400765D01*
X160685671Y-84409030D01*
X160707850Y-84419520D01*
X160728893Y-84432132D01*
X160748599Y-84446747D01*
X160766777Y-84463223D01*
X160783253Y-84481401D01*
X160797868Y-84501107D01*
X160810480Y-84522150D01*
X160820970Y-84544329D01*
X160829235Y-84567428D01*
X160835196Y-84591227D01*
X160838796Y-84615495D01*
X160840000Y-84639999D01*
X160840000Y-85540001D01*
X160838796Y-85564505D01*
X160835196Y-85588773D01*
X160829235Y-85612572D01*
X160820970Y-85635671D01*
X160810480Y-85657850D01*
X160797868Y-85678893D01*
X160783253Y-85698599D01*
X160766777Y-85716777D01*
X160748599Y-85733253D01*
X160728893Y-85747868D01*
X160707850Y-85760480D01*
X160685671Y-85770970D01*
X160662572Y-85779235D01*
X160638773Y-85785196D01*
X160614505Y-85788796D01*
X160590001Y-85790000D01*
X159939999Y-85790000D01*
X159915495Y-85788796D01*
X159891227Y-85785196D01*
X159867428Y-85779235D01*
X159844329Y-85770970D01*
X159822150Y-85760480D01*
X159801107Y-85747868D01*
X159781401Y-85733253D01*
X159763223Y-85716777D01*
X159746747Y-85698599D01*
X159732132Y-85678893D01*
X159719520Y-85657850D01*
X159709030Y-85635671D01*
X159700765Y-85612572D01*
X159694804Y-85588773D01*
X159691204Y-85564505D01*
X159690000Y-85540001D01*
X159690000Y-84639999D01*
X159691204Y-84615495D01*
X159694804Y-84591227D01*
X159700765Y-84567428D01*
X159709030Y-84544329D01*
X159719520Y-84522150D01*
X159732132Y-84501107D01*
X159746747Y-84481401D01*
X159763223Y-84463223D01*
X159781401Y-84446747D01*
X159801107Y-84432132D01*
X159822150Y-84419520D01*
X159844329Y-84409030D01*
X159867428Y-84400765D01*
X159891227Y-84394804D01*
X159915495Y-84391204D01*
X159939999Y-84390000D01*
X160590001Y-84390000D01*
X160614505Y-84391204D01*
X160614505Y-84391204D01*
G37*
D12*
X160265000Y-85090000D03*
G04 #@! TD*
D11*
G04 #@! TO.C,R4*
G36*
X169504505Y-84391204D02*
X169528773Y-84394804D01*
X169552572Y-84400765D01*
X169575671Y-84409030D01*
X169597850Y-84419520D01*
X169618893Y-84432132D01*
X169638599Y-84446747D01*
X169656777Y-84463223D01*
X169673253Y-84481401D01*
X169687868Y-84501107D01*
X169700480Y-84522150D01*
X169710970Y-84544329D01*
X169719235Y-84567428D01*
X169725196Y-84591227D01*
X169728796Y-84615495D01*
X169730000Y-84639999D01*
X169730000Y-85540001D01*
X169728796Y-85564505D01*
X169725196Y-85588773D01*
X169719235Y-85612572D01*
X169710970Y-85635671D01*
X169700480Y-85657850D01*
X169687868Y-85678893D01*
X169673253Y-85698599D01*
X169656777Y-85716777D01*
X169638599Y-85733253D01*
X169618893Y-85747868D01*
X169597850Y-85760480D01*
X169575671Y-85770970D01*
X169552572Y-85779235D01*
X169528773Y-85785196D01*
X169504505Y-85788796D01*
X169480001Y-85790000D01*
X168829999Y-85790000D01*
X168805495Y-85788796D01*
X168781227Y-85785196D01*
X168757428Y-85779235D01*
X168734329Y-85770970D01*
X168712150Y-85760480D01*
X168691107Y-85747868D01*
X168671401Y-85733253D01*
X168653223Y-85716777D01*
X168636747Y-85698599D01*
X168622132Y-85678893D01*
X168609520Y-85657850D01*
X168599030Y-85635671D01*
X168590765Y-85612572D01*
X168584804Y-85588773D01*
X168581204Y-85564505D01*
X168580000Y-85540001D01*
X168580000Y-84639999D01*
X168581204Y-84615495D01*
X168584804Y-84591227D01*
X168590765Y-84567428D01*
X168599030Y-84544329D01*
X168609520Y-84522150D01*
X168622132Y-84501107D01*
X168636747Y-84481401D01*
X168653223Y-84463223D01*
X168671401Y-84446747D01*
X168691107Y-84432132D01*
X168712150Y-84419520D01*
X168734329Y-84409030D01*
X168757428Y-84400765D01*
X168781227Y-84394804D01*
X168805495Y-84391204D01*
X168829999Y-84390000D01*
X169480001Y-84390000D01*
X169504505Y-84391204D01*
X169504505Y-84391204D01*
G37*
D12*
X169155000Y-85090000D03*
D11*
G36*
X171554505Y-84391204D02*
X171578773Y-84394804D01*
X171602572Y-84400765D01*
X171625671Y-84409030D01*
X171647850Y-84419520D01*
X171668893Y-84432132D01*
X171688599Y-84446747D01*
X171706777Y-84463223D01*
X171723253Y-84481401D01*
X171737868Y-84501107D01*
X171750480Y-84522150D01*
X171760970Y-84544329D01*
X171769235Y-84567428D01*
X171775196Y-84591227D01*
X171778796Y-84615495D01*
X171780000Y-84639999D01*
X171780000Y-85540001D01*
X171778796Y-85564505D01*
X171775196Y-85588773D01*
X171769235Y-85612572D01*
X171760970Y-85635671D01*
X171750480Y-85657850D01*
X171737868Y-85678893D01*
X171723253Y-85698599D01*
X171706777Y-85716777D01*
X171688599Y-85733253D01*
X171668893Y-85747868D01*
X171647850Y-85760480D01*
X171625671Y-85770970D01*
X171602572Y-85779235D01*
X171578773Y-85785196D01*
X171554505Y-85788796D01*
X171530001Y-85790000D01*
X170879999Y-85790000D01*
X170855495Y-85788796D01*
X170831227Y-85785196D01*
X170807428Y-85779235D01*
X170784329Y-85770970D01*
X170762150Y-85760480D01*
X170741107Y-85747868D01*
X170721401Y-85733253D01*
X170703223Y-85716777D01*
X170686747Y-85698599D01*
X170672132Y-85678893D01*
X170659520Y-85657850D01*
X170649030Y-85635671D01*
X170640765Y-85612572D01*
X170634804Y-85588773D01*
X170631204Y-85564505D01*
X170630000Y-85540001D01*
X170630000Y-84639999D01*
X170631204Y-84615495D01*
X170634804Y-84591227D01*
X170640765Y-84567428D01*
X170649030Y-84544329D01*
X170659520Y-84522150D01*
X170672132Y-84501107D01*
X170686747Y-84481401D01*
X170703223Y-84463223D01*
X170721401Y-84446747D01*
X170741107Y-84432132D01*
X170762150Y-84419520D01*
X170784329Y-84409030D01*
X170807428Y-84400765D01*
X170831227Y-84394804D01*
X170855495Y-84391204D01*
X170879999Y-84390000D01*
X171530001Y-84390000D01*
X171554505Y-84391204D01*
X171554505Y-84391204D01*
G37*
D12*
X171205000Y-85090000D03*
G04 #@! TD*
D11*
G04 #@! TO.C,R5*
G36*
X168114505Y-93651204D02*
X168138773Y-93654804D01*
X168162572Y-93660765D01*
X168185671Y-93669030D01*
X168207850Y-93679520D01*
X168228893Y-93692132D01*
X168248599Y-93706747D01*
X168266777Y-93723223D01*
X168283253Y-93741401D01*
X168297868Y-93761107D01*
X168310480Y-93782150D01*
X168320970Y-93804329D01*
X168329235Y-93827428D01*
X168335196Y-93851227D01*
X168338796Y-93875495D01*
X168340000Y-93899999D01*
X168340000Y-94550001D01*
X168338796Y-94574505D01*
X168335196Y-94598773D01*
X168329235Y-94622572D01*
X168320970Y-94645671D01*
X168310480Y-94667850D01*
X168297868Y-94688893D01*
X168283253Y-94708599D01*
X168266777Y-94726777D01*
X168248599Y-94743253D01*
X168228893Y-94757868D01*
X168207850Y-94770480D01*
X168185671Y-94780970D01*
X168162572Y-94789235D01*
X168138773Y-94795196D01*
X168114505Y-94798796D01*
X168090001Y-94800000D01*
X167189999Y-94800000D01*
X167165495Y-94798796D01*
X167141227Y-94795196D01*
X167117428Y-94789235D01*
X167094329Y-94780970D01*
X167072150Y-94770480D01*
X167051107Y-94757868D01*
X167031401Y-94743253D01*
X167013223Y-94726777D01*
X166996747Y-94708599D01*
X166982132Y-94688893D01*
X166969520Y-94667850D01*
X166959030Y-94645671D01*
X166950765Y-94622572D01*
X166944804Y-94598773D01*
X166941204Y-94574505D01*
X166940000Y-94550001D01*
X166940000Y-93899999D01*
X166941204Y-93875495D01*
X166944804Y-93851227D01*
X166950765Y-93827428D01*
X166959030Y-93804329D01*
X166969520Y-93782150D01*
X166982132Y-93761107D01*
X166996747Y-93741401D01*
X167013223Y-93723223D01*
X167031401Y-93706747D01*
X167051107Y-93692132D01*
X167072150Y-93679520D01*
X167094329Y-93669030D01*
X167117428Y-93660765D01*
X167141227Y-93654804D01*
X167165495Y-93651204D01*
X167189999Y-93650000D01*
X168090001Y-93650000D01*
X168114505Y-93651204D01*
X168114505Y-93651204D01*
G37*
D12*
X167640000Y-94225000D03*
D11*
G36*
X168114505Y-95701204D02*
X168138773Y-95704804D01*
X168162572Y-95710765D01*
X168185671Y-95719030D01*
X168207850Y-95729520D01*
X168228893Y-95742132D01*
X168248599Y-95756747D01*
X168266777Y-95773223D01*
X168283253Y-95791401D01*
X168297868Y-95811107D01*
X168310480Y-95832150D01*
X168320970Y-95854329D01*
X168329235Y-95877428D01*
X168335196Y-95901227D01*
X168338796Y-95925495D01*
X168340000Y-95949999D01*
X168340000Y-96600001D01*
X168338796Y-96624505D01*
X168335196Y-96648773D01*
X168329235Y-96672572D01*
X168320970Y-96695671D01*
X168310480Y-96717850D01*
X168297868Y-96738893D01*
X168283253Y-96758599D01*
X168266777Y-96776777D01*
X168248599Y-96793253D01*
X168228893Y-96807868D01*
X168207850Y-96820480D01*
X168185671Y-96830970D01*
X168162572Y-96839235D01*
X168138773Y-96845196D01*
X168114505Y-96848796D01*
X168090001Y-96850000D01*
X167189999Y-96850000D01*
X167165495Y-96848796D01*
X167141227Y-96845196D01*
X167117428Y-96839235D01*
X167094329Y-96830970D01*
X167072150Y-96820480D01*
X167051107Y-96807868D01*
X167031401Y-96793253D01*
X167013223Y-96776777D01*
X166996747Y-96758599D01*
X166982132Y-96738893D01*
X166969520Y-96717850D01*
X166959030Y-96695671D01*
X166950765Y-96672572D01*
X166944804Y-96648773D01*
X166941204Y-96624505D01*
X166940000Y-96600001D01*
X166940000Y-95949999D01*
X166941204Y-95925495D01*
X166944804Y-95901227D01*
X166950765Y-95877428D01*
X166959030Y-95854329D01*
X166969520Y-95832150D01*
X166982132Y-95811107D01*
X166996747Y-95791401D01*
X167013223Y-95773223D01*
X167031401Y-95756747D01*
X167051107Y-95742132D01*
X167072150Y-95729520D01*
X167094329Y-95719030D01*
X167117428Y-95710765D01*
X167141227Y-95704804D01*
X167165495Y-95701204D01*
X167189999Y-95700000D01*
X168090001Y-95700000D01*
X168114505Y-95701204D01*
X168114505Y-95701204D01*
G37*
D12*
X167640000Y-96275000D03*
G04 #@! TD*
D11*
G04 #@! TO.C,R6*
G36*
X179664505Y-81851204D02*
X179688773Y-81854804D01*
X179712572Y-81860765D01*
X179735671Y-81869030D01*
X179757850Y-81879520D01*
X179778893Y-81892132D01*
X179798599Y-81906747D01*
X179816777Y-81923223D01*
X179833253Y-81941401D01*
X179847868Y-81961107D01*
X179860480Y-81982150D01*
X179870970Y-82004329D01*
X179879235Y-82027428D01*
X179885196Y-82051227D01*
X179888796Y-82075495D01*
X179890000Y-82099999D01*
X179890000Y-83000001D01*
X179888796Y-83024505D01*
X179885196Y-83048773D01*
X179879235Y-83072572D01*
X179870970Y-83095671D01*
X179860480Y-83117850D01*
X179847868Y-83138893D01*
X179833253Y-83158599D01*
X179816777Y-83176777D01*
X179798599Y-83193253D01*
X179778893Y-83207868D01*
X179757850Y-83220480D01*
X179735671Y-83230970D01*
X179712572Y-83239235D01*
X179688773Y-83245196D01*
X179664505Y-83248796D01*
X179640001Y-83250000D01*
X178989999Y-83250000D01*
X178965495Y-83248796D01*
X178941227Y-83245196D01*
X178917428Y-83239235D01*
X178894329Y-83230970D01*
X178872150Y-83220480D01*
X178851107Y-83207868D01*
X178831401Y-83193253D01*
X178813223Y-83176777D01*
X178796747Y-83158599D01*
X178782132Y-83138893D01*
X178769520Y-83117850D01*
X178759030Y-83095671D01*
X178750765Y-83072572D01*
X178744804Y-83048773D01*
X178741204Y-83024505D01*
X178740000Y-83000001D01*
X178740000Y-82099999D01*
X178741204Y-82075495D01*
X178744804Y-82051227D01*
X178750765Y-82027428D01*
X178759030Y-82004329D01*
X178769520Y-81982150D01*
X178782132Y-81961107D01*
X178796747Y-81941401D01*
X178813223Y-81923223D01*
X178831401Y-81906747D01*
X178851107Y-81892132D01*
X178872150Y-81879520D01*
X178894329Y-81869030D01*
X178917428Y-81860765D01*
X178941227Y-81854804D01*
X178965495Y-81851204D01*
X178989999Y-81850000D01*
X179640001Y-81850000D01*
X179664505Y-81851204D01*
X179664505Y-81851204D01*
G37*
D12*
X179315000Y-82550000D03*
D11*
G36*
X181714505Y-81851204D02*
X181738773Y-81854804D01*
X181762572Y-81860765D01*
X181785671Y-81869030D01*
X181807850Y-81879520D01*
X181828893Y-81892132D01*
X181848599Y-81906747D01*
X181866777Y-81923223D01*
X181883253Y-81941401D01*
X181897868Y-81961107D01*
X181910480Y-81982150D01*
X181920970Y-82004329D01*
X181929235Y-82027428D01*
X181935196Y-82051227D01*
X181938796Y-82075495D01*
X181940000Y-82099999D01*
X181940000Y-83000001D01*
X181938796Y-83024505D01*
X181935196Y-83048773D01*
X181929235Y-83072572D01*
X181920970Y-83095671D01*
X181910480Y-83117850D01*
X181897868Y-83138893D01*
X181883253Y-83158599D01*
X181866777Y-83176777D01*
X181848599Y-83193253D01*
X181828893Y-83207868D01*
X181807850Y-83220480D01*
X181785671Y-83230970D01*
X181762572Y-83239235D01*
X181738773Y-83245196D01*
X181714505Y-83248796D01*
X181690001Y-83250000D01*
X181039999Y-83250000D01*
X181015495Y-83248796D01*
X180991227Y-83245196D01*
X180967428Y-83239235D01*
X180944329Y-83230970D01*
X180922150Y-83220480D01*
X180901107Y-83207868D01*
X180881401Y-83193253D01*
X180863223Y-83176777D01*
X180846747Y-83158599D01*
X180832132Y-83138893D01*
X180819520Y-83117850D01*
X180809030Y-83095671D01*
X180800765Y-83072572D01*
X180794804Y-83048773D01*
X180791204Y-83024505D01*
X180790000Y-83000001D01*
X180790000Y-82099999D01*
X180791204Y-82075495D01*
X180794804Y-82051227D01*
X180800765Y-82027428D01*
X180809030Y-82004329D01*
X180819520Y-81982150D01*
X180832132Y-81961107D01*
X180846747Y-81941401D01*
X180863223Y-81923223D01*
X180881401Y-81906747D01*
X180901107Y-81892132D01*
X180922150Y-81879520D01*
X180944329Y-81869030D01*
X180967428Y-81860765D01*
X180991227Y-81854804D01*
X181015495Y-81851204D01*
X181039999Y-81850000D01*
X181690001Y-81850000D01*
X181714505Y-81851204D01*
X181714505Y-81851204D01*
G37*
D12*
X181365000Y-82550000D03*
G04 #@! TD*
D11*
G04 #@! TO.C,R7*
G36*
X184624505Y-84271204D02*
X184648773Y-84274804D01*
X184672572Y-84280765D01*
X184695671Y-84289030D01*
X184717850Y-84299520D01*
X184738893Y-84312132D01*
X184758599Y-84326747D01*
X184776777Y-84343223D01*
X184793253Y-84361401D01*
X184807868Y-84381107D01*
X184820480Y-84402150D01*
X184830970Y-84424329D01*
X184839235Y-84447428D01*
X184845196Y-84471227D01*
X184848796Y-84495495D01*
X184850000Y-84519999D01*
X184850000Y-85170001D01*
X184848796Y-85194505D01*
X184845196Y-85218773D01*
X184839235Y-85242572D01*
X184830970Y-85265671D01*
X184820480Y-85287850D01*
X184807868Y-85308893D01*
X184793253Y-85328599D01*
X184776777Y-85346777D01*
X184758599Y-85363253D01*
X184738893Y-85377868D01*
X184717850Y-85390480D01*
X184695671Y-85400970D01*
X184672572Y-85409235D01*
X184648773Y-85415196D01*
X184624505Y-85418796D01*
X184600001Y-85420000D01*
X183699999Y-85420000D01*
X183675495Y-85418796D01*
X183651227Y-85415196D01*
X183627428Y-85409235D01*
X183604329Y-85400970D01*
X183582150Y-85390480D01*
X183561107Y-85377868D01*
X183541401Y-85363253D01*
X183523223Y-85346777D01*
X183506747Y-85328599D01*
X183492132Y-85308893D01*
X183479520Y-85287850D01*
X183469030Y-85265671D01*
X183460765Y-85242572D01*
X183454804Y-85218773D01*
X183451204Y-85194505D01*
X183450000Y-85170001D01*
X183450000Y-84519999D01*
X183451204Y-84495495D01*
X183454804Y-84471227D01*
X183460765Y-84447428D01*
X183469030Y-84424329D01*
X183479520Y-84402150D01*
X183492132Y-84381107D01*
X183506747Y-84361401D01*
X183523223Y-84343223D01*
X183541401Y-84326747D01*
X183561107Y-84312132D01*
X183582150Y-84299520D01*
X183604329Y-84289030D01*
X183627428Y-84280765D01*
X183651227Y-84274804D01*
X183675495Y-84271204D01*
X183699999Y-84270000D01*
X184600001Y-84270000D01*
X184624505Y-84271204D01*
X184624505Y-84271204D01*
G37*
D12*
X184150000Y-84845000D03*
D11*
G36*
X184624505Y-82221204D02*
X184648773Y-82224804D01*
X184672572Y-82230765D01*
X184695671Y-82239030D01*
X184717850Y-82249520D01*
X184738893Y-82262132D01*
X184758599Y-82276747D01*
X184776777Y-82293223D01*
X184793253Y-82311401D01*
X184807868Y-82331107D01*
X184820480Y-82352150D01*
X184830970Y-82374329D01*
X184839235Y-82397428D01*
X184845196Y-82421227D01*
X184848796Y-82445495D01*
X184850000Y-82469999D01*
X184850000Y-83120001D01*
X184848796Y-83144505D01*
X184845196Y-83168773D01*
X184839235Y-83192572D01*
X184830970Y-83215671D01*
X184820480Y-83237850D01*
X184807868Y-83258893D01*
X184793253Y-83278599D01*
X184776777Y-83296777D01*
X184758599Y-83313253D01*
X184738893Y-83327868D01*
X184717850Y-83340480D01*
X184695671Y-83350970D01*
X184672572Y-83359235D01*
X184648773Y-83365196D01*
X184624505Y-83368796D01*
X184600001Y-83370000D01*
X183699999Y-83370000D01*
X183675495Y-83368796D01*
X183651227Y-83365196D01*
X183627428Y-83359235D01*
X183604329Y-83350970D01*
X183582150Y-83340480D01*
X183561107Y-83327868D01*
X183541401Y-83313253D01*
X183523223Y-83296777D01*
X183506747Y-83278599D01*
X183492132Y-83258893D01*
X183479520Y-83237850D01*
X183469030Y-83215671D01*
X183460765Y-83192572D01*
X183454804Y-83168773D01*
X183451204Y-83144505D01*
X183450000Y-83120001D01*
X183450000Y-82469999D01*
X183451204Y-82445495D01*
X183454804Y-82421227D01*
X183460765Y-82397428D01*
X183469030Y-82374329D01*
X183479520Y-82352150D01*
X183492132Y-82331107D01*
X183506747Y-82311401D01*
X183523223Y-82293223D01*
X183541401Y-82276747D01*
X183561107Y-82262132D01*
X183582150Y-82249520D01*
X183604329Y-82239030D01*
X183627428Y-82230765D01*
X183651227Y-82224804D01*
X183675495Y-82221204D01*
X183699999Y-82220000D01*
X184600001Y-82220000D01*
X184624505Y-82221204D01*
X184624505Y-82221204D01*
G37*
D12*
X184150000Y-82795000D03*
G04 #@! TD*
D11*
G04 #@! TO.C,R8*
G36*
X180814505Y-94431204D02*
X180838773Y-94434804D01*
X180862572Y-94440765D01*
X180885671Y-94449030D01*
X180907850Y-94459520D01*
X180928893Y-94472132D01*
X180948599Y-94486747D01*
X180966777Y-94503223D01*
X180983253Y-94521401D01*
X180997868Y-94541107D01*
X181010480Y-94562150D01*
X181020970Y-94584329D01*
X181029235Y-94607428D01*
X181035196Y-94631227D01*
X181038796Y-94655495D01*
X181040000Y-94679999D01*
X181040000Y-95330001D01*
X181038796Y-95354505D01*
X181035196Y-95378773D01*
X181029235Y-95402572D01*
X181020970Y-95425671D01*
X181010480Y-95447850D01*
X180997868Y-95468893D01*
X180983253Y-95488599D01*
X180966777Y-95506777D01*
X180948599Y-95523253D01*
X180928893Y-95537868D01*
X180907850Y-95550480D01*
X180885671Y-95560970D01*
X180862572Y-95569235D01*
X180838773Y-95575196D01*
X180814505Y-95578796D01*
X180790001Y-95580000D01*
X179889999Y-95580000D01*
X179865495Y-95578796D01*
X179841227Y-95575196D01*
X179817428Y-95569235D01*
X179794329Y-95560970D01*
X179772150Y-95550480D01*
X179751107Y-95537868D01*
X179731401Y-95523253D01*
X179713223Y-95506777D01*
X179696747Y-95488599D01*
X179682132Y-95468893D01*
X179669520Y-95447850D01*
X179659030Y-95425671D01*
X179650765Y-95402572D01*
X179644804Y-95378773D01*
X179641204Y-95354505D01*
X179640000Y-95330001D01*
X179640000Y-94679999D01*
X179641204Y-94655495D01*
X179644804Y-94631227D01*
X179650765Y-94607428D01*
X179659030Y-94584329D01*
X179669520Y-94562150D01*
X179682132Y-94541107D01*
X179696747Y-94521401D01*
X179713223Y-94503223D01*
X179731401Y-94486747D01*
X179751107Y-94472132D01*
X179772150Y-94459520D01*
X179794329Y-94449030D01*
X179817428Y-94440765D01*
X179841227Y-94434804D01*
X179865495Y-94431204D01*
X179889999Y-94430000D01*
X180790001Y-94430000D01*
X180814505Y-94431204D01*
X180814505Y-94431204D01*
G37*
D12*
X180340000Y-95005000D03*
D11*
G36*
X180814505Y-92381204D02*
X180838773Y-92384804D01*
X180862572Y-92390765D01*
X180885671Y-92399030D01*
X180907850Y-92409520D01*
X180928893Y-92422132D01*
X180948599Y-92436747D01*
X180966777Y-92453223D01*
X180983253Y-92471401D01*
X180997868Y-92491107D01*
X181010480Y-92512150D01*
X181020970Y-92534329D01*
X181029235Y-92557428D01*
X181035196Y-92581227D01*
X181038796Y-92605495D01*
X181040000Y-92629999D01*
X181040000Y-93280001D01*
X181038796Y-93304505D01*
X181035196Y-93328773D01*
X181029235Y-93352572D01*
X181020970Y-93375671D01*
X181010480Y-93397850D01*
X180997868Y-93418893D01*
X180983253Y-93438599D01*
X180966777Y-93456777D01*
X180948599Y-93473253D01*
X180928893Y-93487868D01*
X180907850Y-93500480D01*
X180885671Y-93510970D01*
X180862572Y-93519235D01*
X180838773Y-93525196D01*
X180814505Y-93528796D01*
X180790001Y-93530000D01*
X179889999Y-93530000D01*
X179865495Y-93528796D01*
X179841227Y-93525196D01*
X179817428Y-93519235D01*
X179794329Y-93510970D01*
X179772150Y-93500480D01*
X179751107Y-93487868D01*
X179731401Y-93473253D01*
X179713223Y-93456777D01*
X179696747Y-93438599D01*
X179682132Y-93418893D01*
X179669520Y-93397850D01*
X179659030Y-93375671D01*
X179650765Y-93352572D01*
X179644804Y-93328773D01*
X179641204Y-93304505D01*
X179640000Y-93280001D01*
X179640000Y-92629999D01*
X179641204Y-92605495D01*
X179644804Y-92581227D01*
X179650765Y-92557428D01*
X179659030Y-92534329D01*
X179669520Y-92512150D01*
X179682132Y-92491107D01*
X179696747Y-92471401D01*
X179713223Y-92453223D01*
X179731401Y-92436747D01*
X179751107Y-92422132D01*
X179772150Y-92409520D01*
X179794329Y-92399030D01*
X179817428Y-92390765D01*
X179841227Y-92384804D01*
X179865495Y-92381204D01*
X179889999Y-92380000D01*
X180790001Y-92380000D01*
X180814505Y-92381204D01*
X180814505Y-92381204D01*
G37*
D12*
X180340000Y-92955000D03*
G04 #@! TD*
M02*
