G04 #@! TF.GenerationSoftware,KiCad,Pcbnew,(5.0.2)-1*
G04 #@! TF.CreationDate,2019-06-19T11:59:55+10:00*
G04 #@! TF.ProjectId,C-Beeper,432d4265-6570-4657-922e-6b696361645f,rev?*
G04 #@! TF.SameCoordinates,Original*
G04 #@! TF.FileFunction,Soldermask,Bot*
G04 #@! TF.FilePolarity,Negative*
%FSLAX46Y46*%
G04 Gerber Fmt 4.6, Leading zero omitted, Abs format (unit mm)*
G04 Created by KiCad (PCBNEW (5.0.2)-1) date 19/06/2019 11:59:55 AM*
%MOMM*%
%LPD*%
G01*
G04 APERTURE LIST*
%ADD10C,0.100000*%
G04 APERTURE END LIST*
D10*
G36*
X169841731Y-99233211D02*
X170169492Y-99368974D01*
X170464473Y-99566074D01*
X170715326Y-99816927D01*
X170912426Y-100111908D01*
X171048189Y-100439669D01*
X171117400Y-100787616D01*
X171117400Y-101142384D01*
X171048189Y-101490331D01*
X170912426Y-101818092D01*
X170715326Y-102113073D01*
X170464473Y-102363926D01*
X170169492Y-102561026D01*
X169841731Y-102696789D01*
X169493784Y-102766000D01*
X169139016Y-102766000D01*
X168791069Y-102696789D01*
X168463308Y-102561026D01*
X168168327Y-102363926D01*
X167917474Y-102113073D01*
X167720374Y-101818092D01*
X167584611Y-101490331D01*
X167515400Y-101142384D01*
X167515400Y-100787616D01*
X167584611Y-100439669D01*
X167720374Y-100111908D01*
X167917474Y-99816927D01*
X168168327Y-99566074D01*
X168463308Y-99368974D01*
X168791069Y-99233211D01*
X169139016Y-99164000D01*
X169493784Y-99164000D01*
X169841731Y-99233211D01*
X169841731Y-99233211D01*
G37*
G36*
X175537396Y-94335546D02*
X175710466Y-94407234D01*
X175866230Y-94511312D01*
X175998688Y-94643770D01*
X176102766Y-94799534D01*
X176174454Y-94972604D01*
X176211000Y-95156333D01*
X176211000Y-95343667D01*
X176174454Y-95527396D01*
X176102766Y-95700466D01*
X175998688Y-95856230D01*
X175866230Y-95988688D01*
X175710466Y-96092766D01*
X175537396Y-96164454D01*
X175353667Y-96201000D01*
X175166333Y-96201000D01*
X174982604Y-96164454D01*
X174809534Y-96092766D01*
X174653770Y-95988688D01*
X174521312Y-95856230D01*
X174417234Y-95700466D01*
X174345546Y-95527396D01*
X174309000Y-95343667D01*
X174309000Y-95156333D01*
X174345546Y-94972604D01*
X174417234Y-94799534D01*
X174521312Y-94643770D01*
X174653770Y-94511312D01*
X174809534Y-94407234D01*
X174982604Y-94335546D01*
X175166333Y-94299000D01*
X175353667Y-94299000D01*
X175537396Y-94335546D01*
X175537396Y-94335546D01*
G37*
G36*
X173671000Y-96201000D02*
X171769000Y-96201000D01*
X171769000Y-94299000D01*
X173671000Y-94299000D01*
X173671000Y-96201000D01*
X173671000Y-96201000D01*
G37*
G36*
X193346565Y-89159389D02*
X193537834Y-89238615D01*
X193709976Y-89353637D01*
X193856363Y-89500024D01*
X193971385Y-89672166D01*
X194050611Y-89863435D01*
X194091000Y-90066484D01*
X194091000Y-90273516D01*
X194050611Y-90476565D01*
X193971385Y-90667834D01*
X193856363Y-90839976D01*
X193709976Y-90986363D01*
X193537834Y-91101385D01*
X193346565Y-91180611D01*
X193143516Y-91221000D01*
X192936484Y-91221000D01*
X192733435Y-91180611D01*
X192542166Y-91101385D01*
X192370024Y-90986363D01*
X192223637Y-90839976D01*
X192108615Y-90667834D01*
X192029389Y-90476565D01*
X191989000Y-90273516D01*
X191989000Y-90066484D01*
X192029389Y-89863435D01*
X192108615Y-89672166D01*
X192223637Y-89500024D01*
X192370024Y-89353637D01*
X192542166Y-89238615D01*
X192733435Y-89159389D01*
X192936484Y-89119000D01*
X193143516Y-89119000D01*
X193346565Y-89159389D01*
X193346565Y-89159389D01*
G37*
G36*
X154571000Y-91071000D02*
X152769000Y-91071000D01*
X152769000Y-89269000D01*
X154571000Y-89269000D01*
X154571000Y-91071000D01*
X154571000Y-91071000D01*
G37*
G36*
X176640443Y-88005519D02*
X176706627Y-88012037D01*
X176819853Y-88046384D01*
X176876467Y-88063557D01*
X177015087Y-88137652D01*
X177032991Y-88147222D01*
X177068729Y-88176552D01*
X177170186Y-88259814D01*
X177253448Y-88361271D01*
X177282778Y-88397009D01*
X177282779Y-88397011D01*
X177366443Y-88553533D01*
X177366443Y-88553534D01*
X177417963Y-88723373D01*
X177435359Y-88900000D01*
X177417963Y-89076627D01*
X177405109Y-89119000D01*
X177366443Y-89246467D01*
X177292348Y-89385087D01*
X177282778Y-89402991D01*
X177253448Y-89438729D01*
X177170186Y-89540186D01*
X177068729Y-89623448D01*
X177032991Y-89652778D01*
X177032989Y-89652779D01*
X176876467Y-89736443D01*
X176819853Y-89753616D01*
X176706627Y-89787963D01*
X176640443Y-89794481D01*
X176574260Y-89801000D01*
X176485740Y-89801000D01*
X176419557Y-89794481D01*
X176353373Y-89787963D01*
X176240147Y-89753616D01*
X176183533Y-89736443D01*
X176027011Y-89652779D01*
X176027009Y-89652778D01*
X175991271Y-89623448D01*
X175889814Y-89540186D01*
X175806552Y-89438729D01*
X175777222Y-89402991D01*
X175767652Y-89385087D01*
X175693557Y-89246467D01*
X175654891Y-89119000D01*
X175642037Y-89076627D01*
X175624641Y-88900000D01*
X175642037Y-88723373D01*
X175693557Y-88553534D01*
X175693557Y-88553533D01*
X175777221Y-88397011D01*
X175777222Y-88397009D01*
X175806552Y-88361271D01*
X175889814Y-88259814D01*
X175991271Y-88176552D01*
X176027009Y-88147222D01*
X176044913Y-88137652D01*
X176183533Y-88063557D01*
X176240147Y-88046384D01*
X176353373Y-88012037D01*
X176419557Y-88005519D01*
X176485740Y-87999000D01*
X176574260Y-87999000D01*
X176640443Y-88005519D01*
X176640443Y-88005519D01*
G37*
G36*
X177431000Y-87261000D02*
X175629000Y-87261000D01*
X175629000Y-85459000D01*
X177431000Y-85459000D01*
X177431000Y-87261000D01*
X177431000Y-87261000D01*
G37*
G36*
X169761000Y-82131000D02*
X168059000Y-82131000D01*
X168059000Y-80429000D01*
X169761000Y-80429000D01*
X169761000Y-82131000D01*
X169761000Y-82131000D01*
G37*
G36*
X176696821Y-80441313D02*
X176696824Y-80441314D01*
X176696825Y-80441314D01*
X176857239Y-80489975D01*
X176857241Y-80489976D01*
X176857244Y-80489977D01*
X177005078Y-80568995D01*
X177134659Y-80675341D01*
X177241005Y-80804922D01*
X177320023Y-80952756D01*
X177368687Y-81113179D01*
X177385117Y-81280000D01*
X177368687Y-81446821D01*
X177320023Y-81607244D01*
X177241005Y-81755078D01*
X177134659Y-81884659D01*
X177005078Y-81991005D01*
X176857244Y-82070023D01*
X176857241Y-82070024D01*
X176857239Y-82070025D01*
X176696825Y-82118686D01*
X176696824Y-82118686D01*
X176696821Y-82118687D01*
X176571804Y-82131000D01*
X176488196Y-82131000D01*
X176363179Y-82118687D01*
X176363176Y-82118686D01*
X176363175Y-82118686D01*
X176202761Y-82070025D01*
X176202759Y-82070024D01*
X176202756Y-82070023D01*
X176054922Y-81991005D01*
X175925341Y-81884659D01*
X175818995Y-81755078D01*
X175739977Y-81607244D01*
X175691313Y-81446821D01*
X175674883Y-81280000D01*
X175691313Y-81113179D01*
X175739977Y-80952756D01*
X175818995Y-80804922D01*
X175925341Y-80675341D01*
X176054922Y-80568995D01*
X176202756Y-80489977D01*
X176202759Y-80489976D01*
X176202761Y-80489975D01*
X176363175Y-80441314D01*
X176363176Y-80441314D01*
X176363179Y-80441313D01*
X176488196Y-80429000D01*
X176571804Y-80429000D01*
X176696821Y-80441313D01*
X176696821Y-80441313D01*
G37*
G36*
X169841731Y-75738211D02*
X170169492Y-75873974D01*
X170464473Y-76071074D01*
X170715326Y-76321927D01*
X170912426Y-76616908D01*
X171048189Y-76944669D01*
X171117400Y-77292616D01*
X171117400Y-77647384D01*
X171048189Y-77995331D01*
X170912426Y-78323092D01*
X170715326Y-78618073D01*
X170464473Y-78868926D01*
X170169492Y-79066026D01*
X169841731Y-79201789D01*
X169493784Y-79271000D01*
X169139016Y-79271000D01*
X168791069Y-79201789D01*
X168463308Y-79066026D01*
X168168327Y-78868926D01*
X167917474Y-78618073D01*
X167720374Y-78323092D01*
X167584611Y-77995331D01*
X167515400Y-77647384D01*
X167515400Y-77292616D01*
X167584611Y-76944669D01*
X167720374Y-76616908D01*
X167917474Y-76321927D01*
X168168327Y-76071074D01*
X168463308Y-75873974D01*
X168791069Y-75738211D01*
X169139016Y-75669000D01*
X169493784Y-75669000D01*
X169841731Y-75738211D01*
X169841731Y-75738211D01*
G37*
G36*
X194091000Y-78521000D02*
X191989000Y-78521000D01*
X191989000Y-76419000D01*
X194091000Y-76419000D01*
X194091000Y-78521000D01*
X194091000Y-78521000D01*
G37*
M02*
