G04 #@! TF.GenerationSoftware,KiCad,Pcbnew,(5.0.2)-1*
G04 #@! TF.CreationDate,2019-06-19T11:59:55+10:00*
G04 #@! TF.ProjectId,C-Beeper,432d4265-6570-4657-922e-6b696361645f,rev?*
G04 #@! TF.SameCoordinates,Original*
G04 #@! TF.FileFunction,Copper,L2,Bot*
G04 #@! TF.FilePolarity,Positive*
%FSLAX46Y46*%
G04 Gerber Fmt 4.6, Leading zero omitted, Abs format (unit mm)*
G04 Created by KiCad (PCBNEW (5.0.2)-1) date 19/06/2019 11:59:55 AM*
%MOMM*%
%LPD*%
G01*
G04 APERTURE LIST*
G04 #@! TA.AperFunction,ComponentPad*
%ADD10R,2.000000X2.000000*%
G04 #@! TD*
G04 #@! TA.AperFunction,ComponentPad*
%ADD11C,2.000000*%
G04 #@! TD*
G04 #@! TA.AperFunction,ComponentPad*
%ADD12R,1.600000X1.600000*%
G04 #@! TD*
G04 #@! TA.AperFunction,ComponentPad*
%ADD13O,1.600000X1.600000*%
G04 #@! TD*
G04 #@! TA.AperFunction,ComponentPad*
%ADD14R,1.800000X1.800000*%
G04 #@! TD*
G04 #@! TA.AperFunction,ComponentPad*
%ADD15C,1.800000*%
G04 #@! TD*
G04 #@! TA.AperFunction,ComponentPad*
%ADD16R,1.700000X1.700000*%
G04 #@! TD*
G04 #@! TA.AperFunction,ComponentPad*
%ADD17O,1.700000X1.700000*%
G04 #@! TD*
G04 #@! TA.AperFunction,ViaPad*
%ADD18C,0.800000*%
G04 #@! TD*
G04 #@! TA.AperFunction,Conductor*
%ADD19C,0.254000*%
G04 #@! TD*
G04 APERTURE END LIST*
D10*
G04 #@! TO.P,BT1,1*
G04 #@! TO.N,VCC*
X193040000Y-77470000D03*
D11*
G04 #@! TO.P,BT1,2*
G04 #@! TO.N,GND*
X193040000Y-90170000D03*
G04 #@! TD*
D12*
G04 #@! TO.P,D1,1*
G04 #@! TO.N,Net-(D1-Pad1)*
X168910000Y-81280000D03*
D13*
G04 #@! TO.P,D1,2*
G04 #@! TO.N,Net-(D1-Pad2)*
X176530000Y-81280000D03*
G04 #@! TD*
D14*
G04 #@! TO.P,D2,1*
G04 #@! TO.N,GND*
X172720000Y-95250000D03*
D15*
G04 #@! TO.P,D2,2*
G04 #@! TO.N,Net-(D2-Pad2)*
X175260000Y-95250000D03*
G04 #@! TD*
D16*
G04 #@! TO.P,J1,1*
G04 #@! TO.N,Net-(J1-Pad1)*
X153670000Y-90170000D03*
G04 #@! TD*
G04 #@! TO.P,LS1,1*
G04 #@! TO.N,GND*
X176530000Y-86360000D03*
D17*
G04 #@! TO.P,LS1,2*
G04 #@! TO.N,Net-(LS1-Pad2)*
X176530000Y-88900000D03*
G04 #@! TD*
D18*
G04 #@! TO.N,GND*
X147220000Y-104440000D03*
X157380000Y-104440000D03*
X167540000Y-104440000D03*
X177700000Y-104440000D03*
X187860000Y-104440000D03*
X192940000Y-99360000D03*
X182780000Y-99360000D03*
X172620000Y-99360000D03*
X162460000Y-99360000D03*
X152300000Y-99360000D03*
X147220000Y-94280000D03*
X157380000Y-94280000D03*
X187860000Y-94280000D03*
X187860000Y-73960000D03*
X177700000Y-84120000D03*
X172620000Y-79040000D03*
X167540000Y-73960000D03*
X177700000Y-73960000D03*
X157380000Y-73960000D03*
X147220000Y-73960000D03*
X152300000Y-79040000D03*
X162460000Y-79040000D03*
X182780000Y-79040000D03*
X157380000Y-84120000D03*
X147220000Y-84120000D03*
G04 #@! TD*
D19*
G04 #@! TO.N,GND*
G36*
X194920000Y-108560000D02*
X142900000Y-108560000D01*
X142900000Y-100730098D01*
X166931400Y-100730098D01*
X166931400Y-101199902D01*
X167023054Y-101660679D01*
X167202840Y-102094721D01*
X167463850Y-102485349D01*
X167796051Y-102817550D01*
X168186679Y-103078560D01*
X168620721Y-103258346D01*
X169081498Y-103350000D01*
X169551302Y-103350000D01*
X170012079Y-103258346D01*
X170446121Y-103078560D01*
X170836749Y-102817550D01*
X171168950Y-102485349D01*
X171429960Y-102094721D01*
X171609746Y-101660679D01*
X171701400Y-101199902D01*
X171701400Y-100730098D01*
X171609746Y-100269321D01*
X171429960Y-99835279D01*
X171168950Y-99444651D01*
X170836749Y-99112450D01*
X170446121Y-98851440D01*
X170012079Y-98671654D01*
X169551302Y-98580000D01*
X169081498Y-98580000D01*
X168620721Y-98671654D01*
X168186679Y-98851440D01*
X167796051Y-99112450D01*
X167463850Y-99444651D01*
X167202840Y-99835279D01*
X167023054Y-100269321D01*
X166931400Y-100730098D01*
X142900000Y-100730098D01*
X142900000Y-95535750D01*
X171185000Y-95535750D01*
X171185000Y-96212542D01*
X171209403Y-96335223D01*
X171257270Y-96450785D01*
X171326763Y-96554789D01*
X171415211Y-96643237D01*
X171519215Y-96712730D01*
X171634777Y-96760597D01*
X171757458Y-96785000D01*
X172434250Y-96785000D01*
X172593000Y-96626250D01*
X172593000Y-95377000D01*
X171343750Y-95377000D01*
X171185000Y-95535750D01*
X142900000Y-95535750D01*
X142900000Y-94287458D01*
X171185000Y-94287458D01*
X171185000Y-94964250D01*
X171343750Y-95123000D01*
X172593000Y-95123000D01*
X172593000Y-93873750D01*
X172847000Y-93873750D01*
X172847000Y-95123000D01*
X172867000Y-95123000D01*
X172867000Y-95377000D01*
X172847000Y-95377000D01*
X172847000Y-96626250D01*
X173005750Y-96785000D01*
X173682542Y-96785000D01*
X173805223Y-96760597D01*
X173920785Y-96712730D01*
X174024789Y-96643237D01*
X174113237Y-96554789D01*
X174182730Y-96450785D01*
X174214139Y-96374956D01*
X174281495Y-96442312D01*
X174532905Y-96610299D01*
X174812257Y-96726011D01*
X175108816Y-96785000D01*
X175411184Y-96785000D01*
X175707743Y-96726011D01*
X175987095Y-96610299D01*
X176238505Y-96442312D01*
X176452312Y-96228505D01*
X176620299Y-95977095D01*
X176736011Y-95697743D01*
X176795000Y-95401184D01*
X176795000Y-95098816D01*
X176736011Y-94802257D01*
X176620299Y-94522905D01*
X176452312Y-94271495D01*
X176238505Y-94057688D01*
X175987095Y-93889701D01*
X175707743Y-93773989D01*
X175411184Y-93715000D01*
X175108816Y-93715000D01*
X174812257Y-93773989D01*
X174532905Y-93889701D01*
X174281495Y-94057688D01*
X174214139Y-94125044D01*
X174182730Y-94049215D01*
X174113237Y-93945211D01*
X174024789Y-93856763D01*
X173920785Y-93787270D01*
X173805223Y-93739403D01*
X173682542Y-93715000D01*
X173005750Y-93715000D01*
X172847000Y-93873750D01*
X172593000Y-93873750D01*
X172434250Y-93715000D01*
X171757458Y-93715000D01*
X171634777Y-93739403D01*
X171519215Y-93787270D01*
X171415211Y-93856763D01*
X171326763Y-93945211D01*
X171257270Y-94049215D01*
X171209403Y-94164777D01*
X171185000Y-94287458D01*
X142900000Y-94287458D01*
X142900000Y-89320000D01*
X152181928Y-89320000D01*
X152181928Y-91020000D01*
X152194188Y-91144482D01*
X152230498Y-91264180D01*
X152289463Y-91374494D01*
X152368815Y-91471185D01*
X152465506Y-91550537D01*
X152575820Y-91609502D01*
X152695518Y-91645812D01*
X152820000Y-91658072D01*
X154520000Y-91658072D01*
X154644482Y-91645812D01*
X154764180Y-91609502D01*
X154874494Y-91550537D01*
X154971185Y-91471185D01*
X155050537Y-91374494D01*
X155087462Y-91305413D01*
X192084192Y-91305413D01*
X192179956Y-91569814D01*
X192469571Y-91710704D01*
X192781108Y-91792384D01*
X193102595Y-91811718D01*
X193421675Y-91767961D01*
X193726088Y-91662795D01*
X193900044Y-91569814D01*
X193995808Y-91305413D01*
X193040000Y-90349605D01*
X192084192Y-91305413D01*
X155087462Y-91305413D01*
X155109502Y-91264180D01*
X155145812Y-91144482D01*
X155158072Y-91020000D01*
X155158072Y-89320000D01*
X155145812Y-89195518D01*
X155109502Y-89075820D01*
X155050537Y-88965506D01*
X154996778Y-88900000D01*
X175037815Y-88900000D01*
X175066487Y-89191111D01*
X175151401Y-89471034D01*
X175289294Y-89729014D01*
X175474866Y-89955134D01*
X175700986Y-90140706D01*
X175958966Y-90278599D01*
X176238889Y-90363513D01*
X176457050Y-90385000D01*
X176602950Y-90385000D01*
X176821111Y-90363513D01*
X177101034Y-90278599D01*
X177187101Y-90232595D01*
X191398282Y-90232595D01*
X191442039Y-90551675D01*
X191547205Y-90856088D01*
X191640186Y-91030044D01*
X191904587Y-91125808D01*
X192860395Y-90170000D01*
X193219605Y-90170000D01*
X194175413Y-91125808D01*
X194439814Y-91030044D01*
X194580704Y-90740429D01*
X194662384Y-90428892D01*
X194681718Y-90107405D01*
X194637961Y-89788325D01*
X194532795Y-89483912D01*
X194439814Y-89309956D01*
X194175413Y-89214192D01*
X193219605Y-90170000D01*
X192860395Y-90170000D01*
X191904587Y-89214192D01*
X191640186Y-89309956D01*
X191499296Y-89599571D01*
X191417616Y-89911108D01*
X191398282Y-90232595D01*
X177187101Y-90232595D01*
X177359014Y-90140706D01*
X177585134Y-89955134D01*
X177770706Y-89729014D01*
X177908599Y-89471034D01*
X177993513Y-89191111D01*
X178008929Y-89034587D01*
X192084192Y-89034587D01*
X193040000Y-89990395D01*
X193995808Y-89034587D01*
X193900044Y-88770186D01*
X193610429Y-88629296D01*
X193298892Y-88547616D01*
X192977405Y-88528282D01*
X192658325Y-88572039D01*
X192353912Y-88677205D01*
X192179956Y-88770186D01*
X192084192Y-89034587D01*
X178008929Y-89034587D01*
X178022185Y-88900000D01*
X177993513Y-88608889D01*
X177908599Y-88328966D01*
X177770706Y-88070986D01*
X177585134Y-87844866D01*
X177557447Y-87822144D01*
X177565223Y-87820597D01*
X177680785Y-87772730D01*
X177784789Y-87703237D01*
X177873237Y-87614789D01*
X177942730Y-87510785D01*
X177990597Y-87395223D01*
X178015000Y-87272542D01*
X178015000Y-86645750D01*
X177856250Y-86487000D01*
X176657000Y-86487000D01*
X176657000Y-86507000D01*
X176403000Y-86507000D01*
X176403000Y-86487000D01*
X175203750Y-86487000D01*
X175045000Y-86645750D01*
X175045000Y-87272542D01*
X175069403Y-87395223D01*
X175117270Y-87510785D01*
X175186763Y-87614789D01*
X175275211Y-87703237D01*
X175379215Y-87772730D01*
X175494777Y-87820597D01*
X175502553Y-87822144D01*
X175474866Y-87844866D01*
X175289294Y-88070986D01*
X175151401Y-88328966D01*
X175066487Y-88608889D01*
X175037815Y-88900000D01*
X154996778Y-88900000D01*
X154971185Y-88868815D01*
X154874494Y-88789463D01*
X154764180Y-88730498D01*
X154644482Y-88694188D01*
X154520000Y-88681928D01*
X152820000Y-88681928D01*
X152695518Y-88694188D01*
X152575820Y-88730498D01*
X152465506Y-88789463D01*
X152368815Y-88868815D01*
X152289463Y-88965506D01*
X152230498Y-89075820D01*
X152194188Y-89195518D01*
X152181928Y-89320000D01*
X142900000Y-89320000D01*
X142900000Y-85447458D01*
X175045000Y-85447458D01*
X175045000Y-86074250D01*
X175203750Y-86233000D01*
X176403000Y-86233000D01*
X176403000Y-85033750D01*
X176657000Y-85033750D01*
X176657000Y-86233000D01*
X177856250Y-86233000D01*
X178015000Y-86074250D01*
X178015000Y-85447458D01*
X177990597Y-85324777D01*
X177942730Y-85209215D01*
X177873237Y-85105211D01*
X177784789Y-85016763D01*
X177680785Y-84947270D01*
X177565223Y-84899403D01*
X177442542Y-84875000D01*
X176815750Y-84875000D01*
X176657000Y-85033750D01*
X176403000Y-85033750D01*
X176244250Y-84875000D01*
X175617458Y-84875000D01*
X175494777Y-84899403D01*
X175379215Y-84947270D01*
X175275211Y-85016763D01*
X175186763Y-85105211D01*
X175117270Y-85209215D01*
X175069403Y-85324777D01*
X175045000Y-85447458D01*
X142900000Y-85447458D01*
X142900000Y-77235098D01*
X166931400Y-77235098D01*
X166931400Y-77704902D01*
X167023054Y-78165679D01*
X167202840Y-78599721D01*
X167463850Y-78990349D01*
X167796051Y-79322550D01*
X168186679Y-79583560D01*
X168620721Y-79763346D01*
X169015780Y-79841928D01*
X168110000Y-79841928D01*
X167985518Y-79854188D01*
X167865820Y-79890498D01*
X167755506Y-79949463D01*
X167658815Y-80028815D01*
X167579463Y-80125506D01*
X167520498Y-80235820D01*
X167484188Y-80355518D01*
X167471928Y-80480000D01*
X167471928Y-82080000D01*
X167484188Y-82204482D01*
X167520498Y-82324180D01*
X167579463Y-82434494D01*
X167658815Y-82531185D01*
X167755506Y-82610537D01*
X167865820Y-82669502D01*
X167985518Y-82705812D01*
X168110000Y-82718072D01*
X169710000Y-82718072D01*
X169834482Y-82705812D01*
X169954180Y-82669502D01*
X170064494Y-82610537D01*
X170161185Y-82531185D01*
X170240537Y-82434494D01*
X170299502Y-82324180D01*
X170335812Y-82204482D01*
X170348072Y-82080000D01*
X170348072Y-81280000D01*
X175088057Y-81280000D01*
X175115764Y-81561309D01*
X175197818Y-81831808D01*
X175331068Y-82081101D01*
X175510392Y-82299608D01*
X175728899Y-82478932D01*
X175978192Y-82612182D01*
X176248691Y-82694236D01*
X176459508Y-82715000D01*
X176600492Y-82715000D01*
X176811309Y-82694236D01*
X177081808Y-82612182D01*
X177331101Y-82478932D01*
X177549608Y-82299608D01*
X177728932Y-82081101D01*
X177862182Y-81831808D01*
X177944236Y-81561309D01*
X177971943Y-81280000D01*
X177944236Y-80998691D01*
X177862182Y-80728192D01*
X177728932Y-80478899D01*
X177549608Y-80260392D01*
X177331101Y-80081068D01*
X177081808Y-79947818D01*
X176811309Y-79865764D01*
X176600492Y-79845000D01*
X176459508Y-79845000D01*
X176248691Y-79865764D01*
X175978192Y-79947818D01*
X175728899Y-80081068D01*
X175510392Y-80260392D01*
X175331068Y-80478899D01*
X175197818Y-80728192D01*
X175115764Y-80998691D01*
X175088057Y-81280000D01*
X170348072Y-81280000D01*
X170348072Y-80480000D01*
X170335812Y-80355518D01*
X170299502Y-80235820D01*
X170240537Y-80125506D01*
X170161185Y-80028815D01*
X170064494Y-79949463D01*
X169954180Y-79890498D01*
X169834482Y-79854188D01*
X169710000Y-79841928D01*
X169617020Y-79841928D01*
X170012079Y-79763346D01*
X170446121Y-79583560D01*
X170836749Y-79322550D01*
X171168950Y-78990349D01*
X171429960Y-78599721D01*
X171609746Y-78165679D01*
X171701400Y-77704902D01*
X171701400Y-77235098D01*
X171609746Y-76774321D01*
X171483693Y-76470000D01*
X191401928Y-76470000D01*
X191401928Y-78470000D01*
X191414188Y-78594482D01*
X191450498Y-78714180D01*
X191509463Y-78824494D01*
X191588815Y-78921185D01*
X191685506Y-79000537D01*
X191795820Y-79059502D01*
X191915518Y-79095812D01*
X192040000Y-79108072D01*
X194040000Y-79108072D01*
X194164482Y-79095812D01*
X194284180Y-79059502D01*
X194394494Y-79000537D01*
X194491185Y-78921185D01*
X194570537Y-78824494D01*
X194629502Y-78714180D01*
X194665812Y-78594482D01*
X194678072Y-78470000D01*
X194678072Y-76470000D01*
X194665812Y-76345518D01*
X194629502Y-76225820D01*
X194570537Y-76115506D01*
X194491185Y-76018815D01*
X194394494Y-75939463D01*
X194284180Y-75880498D01*
X194164482Y-75844188D01*
X194040000Y-75831928D01*
X192040000Y-75831928D01*
X191915518Y-75844188D01*
X191795820Y-75880498D01*
X191685506Y-75939463D01*
X191588815Y-76018815D01*
X191509463Y-76115506D01*
X191450498Y-76225820D01*
X191414188Y-76345518D01*
X191401928Y-76470000D01*
X171483693Y-76470000D01*
X171429960Y-76340279D01*
X171168950Y-75949651D01*
X170836749Y-75617450D01*
X170446121Y-75356440D01*
X170012079Y-75176654D01*
X169551302Y-75085000D01*
X169081498Y-75085000D01*
X168620721Y-75176654D01*
X168186679Y-75356440D01*
X167796051Y-75617450D01*
X167463850Y-75949651D01*
X167202840Y-76340279D01*
X167023054Y-76774321D01*
X166931400Y-77235098D01*
X142900000Y-77235098D01*
X142900000Y-71780000D01*
X194920001Y-71780000D01*
X194920000Y-108560000D01*
X194920000Y-108560000D01*
G37*
X194920000Y-108560000D02*
X142900000Y-108560000D01*
X142900000Y-100730098D01*
X166931400Y-100730098D01*
X166931400Y-101199902D01*
X167023054Y-101660679D01*
X167202840Y-102094721D01*
X167463850Y-102485349D01*
X167796051Y-102817550D01*
X168186679Y-103078560D01*
X168620721Y-103258346D01*
X169081498Y-103350000D01*
X169551302Y-103350000D01*
X170012079Y-103258346D01*
X170446121Y-103078560D01*
X170836749Y-102817550D01*
X171168950Y-102485349D01*
X171429960Y-102094721D01*
X171609746Y-101660679D01*
X171701400Y-101199902D01*
X171701400Y-100730098D01*
X171609746Y-100269321D01*
X171429960Y-99835279D01*
X171168950Y-99444651D01*
X170836749Y-99112450D01*
X170446121Y-98851440D01*
X170012079Y-98671654D01*
X169551302Y-98580000D01*
X169081498Y-98580000D01*
X168620721Y-98671654D01*
X168186679Y-98851440D01*
X167796051Y-99112450D01*
X167463850Y-99444651D01*
X167202840Y-99835279D01*
X167023054Y-100269321D01*
X166931400Y-100730098D01*
X142900000Y-100730098D01*
X142900000Y-95535750D01*
X171185000Y-95535750D01*
X171185000Y-96212542D01*
X171209403Y-96335223D01*
X171257270Y-96450785D01*
X171326763Y-96554789D01*
X171415211Y-96643237D01*
X171519215Y-96712730D01*
X171634777Y-96760597D01*
X171757458Y-96785000D01*
X172434250Y-96785000D01*
X172593000Y-96626250D01*
X172593000Y-95377000D01*
X171343750Y-95377000D01*
X171185000Y-95535750D01*
X142900000Y-95535750D01*
X142900000Y-94287458D01*
X171185000Y-94287458D01*
X171185000Y-94964250D01*
X171343750Y-95123000D01*
X172593000Y-95123000D01*
X172593000Y-93873750D01*
X172847000Y-93873750D01*
X172847000Y-95123000D01*
X172867000Y-95123000D01*
X172867000Y-95377000D01*
X172847000Y-95377000D01*
X172847000Y-96626250D01*
X173005750Y-96785000D01*
X173682542Y-96785000D01*
X173805223Y-96760597D01*
X173920785Y-96712730D01*
X174024789Y-96643237D01*
X174113237Y-96554789D01*
X174182730Y-96450785D01*
X174214139Y-96374956D01*
X174281495Y-96442312D01*
X174532905Y-96610299D01*
X174812257Y-96726011D01*
X175108816Y-96785000D01*
X175411184Y-96785000D01*
X175707743Y-96726011D01*
X175987095Y-96610299D01*
X176238505Y-96442312D01*
X176452312Y-96228505D01*
X176620299Y-95977095D01*
X176736011Y-95697743D01*
X176795000Y-95401184D01*
X176795000Y-95098816D01*
X176736011Y-94802257D01*
X176620299Y-94522905D01*
X176452312Y-94271495D01*
X176238505Y-94057688D01*
X175987095Y-93889701D01*
X175707743Y-93773989D01*
X175411184Y-93715000D01*
X175108816Y-93715000D01*
X174812257Y-93773989D01*
X174532905Y-93889701D01*
X174281495Y-94057688D01*
X174214139Y-94125044D01*
X174182730Y-94049215D01*
X174113237Y-93945211D01*
X174024789Y-93856763D01*
X173920785Y-93787270D01*
X173805223Y-93739403D01*
X173682542Y-93715000D01*
X173005750Y-93715000D01*
X172847000Y-93873750D01*
X172593000Y-93873750D01*
X172434250Y-93715000D01*
X171757458Y-93715000D01*
X171634777Y-93739403D01*
X171519215Y-93787270D01*
X171415211Y-93856763D01*
X171326763Y-93945211D01*
X171257270Y-94049215D01*
X171209403Y-94164777D01*
X171185000Y-94287458D01*
X142900000Y-94287458D01*
X142900000Y-89320000D01*
X152181928Y-89320000D01*
X152181928Y-91020000D01*
X152194188Y-91144482D01*
X152230498Y-91264180D01*
X152289463Y-91374494D01*
X152368815Y-91471185D01*
X152465506Y-91550537D01*
X152575820Y-91609502D01*
X152695518Y-91645812D01*
X152820000Y-91658072D01*
X154520000Y-91658072D01*
X154644482Y-91645812D01*
X154764180Y-91609502D01*
X154874494Y-91550537D01*
X154971185Y-91471185D01*
X155050537Y-91374494D01*
X155087462Y-91305413D01*
X192084192Y-91305413D01*
X192179956Y-91569814D01*
X192469571Y-91710704D01*
X192781108Y-91792384D01*
X193102595Y-91811718D01*
X193421675Y-91767961D01*
X193726088Y-91662795D01*
X193900044Y-91569814D01*
X193995808Y-91305413D01*
X193040000Y-90349605D01*
X192084192Y-91305413D01*
X155087462Y-91305413D01*
X155109502Y-91264180D01*
X155145812Y-91144482D01*
X155158072Y-91020000D01*
X155158072Y-89320000D01*
X155145812Y-89195518D01*
X155109502Y-89075820D01*
X155050537Y-88965506D01*
X154996778Y-88900000D01*
X175037815Y-88900000D01*
X175066487Y-89191111D01*
X175151401Y-89471034D01*
X175289294Y-89729014D01*
X175474866Y-89955134D01*
X175700986Y-90140706D01*
X175958966Y-90278599D01*
X176238889Y-90363513D01*
X176457050Y-90385000D01*
X176602950Y-90385000D01*
X176821111Y-90363513D01*
X177101034Y-90278599D01*
X177187101Y-90232595D01*
X191398282Y-90232595D01*
X191442039Y-90551675D01*
X191547205Y-90856088D01*
X191640186Y-91030044D01*
X191904587Y-91125808D01*
X192860395Y-90170000D01*
X193219605Y-90170000D01*
X194175413Y-91125808D01*
X194439814Y-91030044D01*
X194580704Y-90740429D01*
X194662384Y-90428892D01*
X194681718Y-90107405D01*
X194637961Y-89788325D01*
X194532795Y-89483912D01*
X194439814Y-89309956D01*
X194175413Y-89214192D01*
X193219605Y-90170000D01*
X192860395Y-90170000D01*
X191904587Y-89214192D01*
X191640186Y-89309956D01*
X191499296Y-89599571D01*
X191417616Y-89911108D01*
X191398282Y-90232595D01*
X177187101Y-90232595D01*
X177359014Y-90140706D01*
X177585134Y-89955134D01*
X177770706Y-89729014D01*
X177908599Y-89471034D01*
X177993513Y-89191111D01*
X178008929Y-89034587D01*
X192084192Y-89034587D01*
X193040000Y-89990395D01*
X193995808Y-89034587D01*
X193900044Y-88770186D01*
X193610429Y-88629296D01*
X193298892Y-88547616D01*
X192977405Y-88528282D01*
X192658325Y-88572039D01*
X192353912Y-88677205D01*
X192179956Y-88770186D01*
X192084192Y-89034587D01*
X178008929Y-89034587D01*
X178022185Y-88900000D01*
X177993513Y-88608889D01*
X177908599Y-88328966D01*
X177770706Y-88070986D01*
X177585134Y-87844866D01*
X177557447Y-87822144D01*
X177565223Y-87820597D01*
X177680785Y-87772730D01*
X177784789Y-87703237D01*
X177873237Y-87614789D01*
X177942730Y-87510785D01*
X177990597Y-87395223D01*
X178015000Y-87272542D01*
X178015000Y-86645750D01*
X177856250Y-86487000D01*
X176657000Y-86487000D01*
X176657000Y-86507000D01*
X176403000Y-86507000D01*
X176403000Y-86487000D01*
X175203750Y-86487000D01*
X175045000Y-86645750D01*
X175045000Y-87272542D01*
X175069403Y-87395223D01*
X175117270Y-87510785D01*
X175186763Y-87614789D01*
X175275211Y-87703237D01*
X175379215Y-87772730D01*
X175494777Y-87820597D01*
X175502553Y-87822144D01*
X175474866Y-87844866D01*
X175289294Y-88070986D01*
X175151401Y-88328966D01*
X175066487Y-88608889D01*
X175037815Y-88900000D01*
X154996778Y-88900000D01*
X154971185Y-88868815D01*
X154874494Y-88789463D01*
X154764180Y-88730498D01*
X154644482Y-88694188D01*
X154520000Y-88681928D01*
X152820000Y-88681928D01*
X152695518Y-88694188D01*
X152575820Y-88730498D01*
X152465506Y-88789463D01*
X152368815Y-88868815D01*
X152289463Y-88965506D01*
X152230498Y-89075820D01*
X152194188Y-89195518D01*
X152181928Y-89320000D01*
X142900000Y-89320000D01*
X142900000Y-85447458D01*
X175045000Y-85447458D01*
X175045000Y-86074250D01*
X175203750Y-86233000D01*
X176403000Y-86233000D01*
X176403000Y-85033750D01*
X176657000Y-85033750D01*
X176657000Y-86233000D01*
X177856250Y-86233000D01*
X178015000Y-86074250D01*
X178015000Y-85447458D01*
X177990597Y-85324777D01*
X177942730Y-85209215D01*
X177873237Y-85105211D01*
X177784789Y-85016763D01*
X177680785Y-84947270D01*
X177565223Y-84899403D01*
X177442542Y-84875000D01*
X176815750Y-84875000D01*
X176657000Y-85033750D01*
X176403000Y-85033750D01*
X176244250Y-84875000D01*
X175617458Y-84875000D01*
X175494777Y-84899403D01*
X175379215Y-84947270D01*
X175275211Y-85016763D01*
X175186763Y-85105211D01*
X175117270Y-85209215D01*
X175069403Y-85324777D01*
X175045000Y-85447458D01*
X142900000Y-85447458D01*
X142900000Y-77235098D01*
X166931400Y-77235098D01*
X166931400Y-77704902D01*
X167023054Y-78165679D01*
X167202840Y-78599721D01*
X167463850Y-78990349D01*
X167796051Y-79322550D01*
X168186679Y-79583560D01*
X168620721Y-79763346D01*
X169015780Y-79841928D01*
X168110000Y-79841928D01*
X167985518Y-79854188D01*
X167865820Y-79890498D01*
X167755506Y-79949463D01*
X167658815Y-80028815D01*
X167579463Y-80125506D01*
X167520498Y-80235820D01*
X167484188Y-80355518D01*
X167471928Y-80480000D01*
X167471928Y-82080000D01*
X167484188Y-82204482D01*
X167520498Y-82324180D01*
X167579463Y-82434494D01*
X167658815Y-82531185D01*
X167755506Y-82610537D01*
X167865820Y-82669502D01*
X167985518Y-82705812D01*
X168110000Y-82718072D01*
X169710000Y-82718072D01*
X169834482Y-82705812D01*
X169954180Y-82669502D01*
X170064494Y-82610537D01*
X170161185Y-82531185D01*
X170240537Y-82434494D01*
X170299502Y-82324180D01*
X170335812Y-82204482D01*
X170348072Y-82080000D01*
X170348072Y-81280000D01*
X175088057Y-81280000D01*
X175115764Y-81561309D01*
X175197818Y-81831808D01*
X175331068Y-82081101D01*
X175510392Y-82299608D01*
X175728899Y-82478932D01*
X175978192Y-82612182D01*
X176248691Y-82694236D01*
X176459508Y-82715000D01*
X176600492Y-82715000D01*
X176811309Y-82694236D01*
X177081808Y-82612182D01*
X177331101Y-82478932D01*
X177549608Y-82299608D01*
X177728932Y-82081101D01*
X177862182Y-81831808D01*
X177944236Y-81561309D01*
X177971943Y-81280000D01*
X177944236Y-80998691D01*
X177862182Y-80728192D01*
X177728932Y-80478899D01*
X177549608Y-80260392D01*
X177331101Y-80081068D01*
X177081808Y-79947818D01*
X176811309Y-79865764D01*
X176600492Y-79845000D01*
X176459508Y-79845000D01*
X176248691Y-79865764D01*
X175978192Y-79947818D01*
X175728899Y-80081068D01*
X175510392Y-80260392D01*
X175331068Y-80478899D01*
X175197818Y-80728192D01*
X175115764Y-80998691D01*
X175088057Y-81280000D01*
X170348072Y-81280000D01*
X170348072Y-80480000D01*
X170335812Y-80355518D01*
X170299502Y-80235820D01*
X170240537Y-80125506D01*
X170161185Y-80028815D01*
X170064494Y-79949463D01*
X169954180Y-79890498D01*
X169834482Y-79854188D01*
X169710000Y-79841928D01*
X169617020Y-79841928D01*
X170012079Y-79763346D01*
X170446121Y-79583560D01*
X170836749Y-79322550D01*
X171168950Y-78990349D01*
X171429960Y-78599721D01*
X171609746Y-78165679D01*
X171701400Y-77704902D01*
X171701400Y-77235098D01*
X171609746Y-76774321D01*
X171483693Y-76470000D01*
X191401928Y-76470000D01*
X191401928Y-78470000D01*
X191414188Y-78594482D01*
X191450498Y-78714180D01*
X191509463Y-78824494D01*
X191588815Y-78921185D01*
X191685506Y-79000537D01*
X191795820Y-79059502D01*
X191915518Y-79095812D01*
X192040000Y-79108072D01*
X194040000Y-79108072D01*
X194164482Y-79095812D01*
X194284180Y-79059502D01*
X194394494Y-79000537D01*
X194491185Y-78921185D01*
X194570537Y-78824494D01*
X194629502Y-78714180D01*
X194665812Y-78594482D01*
X194678072Y-78470000D01*
X194678072Y-76470000D01*
X194665812Y-76345518D01*
X194629502Y-76225820D01*
X194570537Y-76115506D01*
X194491185Y-76018815D01*
X194394494Y-75939463D01*
X194284180Y-75880498D01*
X194164482Y-75844188D01*
X194040000Y-75831928D01*
X192040000Y-75831928D01*
X191915518Y-75844188D01*
X191795820Y-75880498D01*
X191685506Y-75939463D01*
X191588815Y-76018815D01*
X191509463Y-76115506D01*
X191450498Y-76225820D01*
X191414188Y-76345518D01*
X191401928Y-76470000D01*
X171483693Y-76470000D01*
X171429960Y-76340279D01*
X171168950Y-75949651D01*
X170836749Y-75617450D01*
X170446121Y-75356440D01*
X170012079Y-75176654D01*
X169551302Y-75085000D01*
X169081498Y-75085000D01*
X168620721Y-75176654D01*
X168186679Y-75356440D01*
X167796051Y-75617450D01*
X167463850Y-75949651D01*
X167202840Y-76340279D01*
X167023054Y-76774321D01*
X166931400Y-77235098D01*
X142900000Y-77235098D01*
X142900000Y-71780000D01*
X194920001Y-71780000D01*
X194920000Y-108560000D01*
G04 #@! TD*
M02*
