M48
;DRILL file {KiCad (5.0.2)-1} date 19/06/2019 12:00:02 PM
;FORMAT={-:-/ absolute / metric / decimal}
FMAT,2
METRIC,TZ
T1C0.400
T2C0.800
T3C0.900
T4C1.000
T5C1.020
T6C3.500
%
G90
G05
T1
X147.22Y-73.96
X147.22Y-84.12
X147.22Y-94.28
X147.22Y-104.44
X152.3Y-79.04
X152.3Y-99.36
X157.38Y-73.96
X157.38Y-84.12
X157.38Y-94.28
X157.38Y-104.44
X162.46Y-79.04
X162.46Y-99.36
X167.54Y-73.96
X167.54Y-104.44
X172.62Y-79.04
X172.62Y-99.36
X177.7Y-73.96
X177.7Y-84.12
X177.7Y-104.44
X182.78Y-79.04
X182.78Y-99.36
X187.86Y-73.96
X187.86Y-94.28
X187.86Y-104.44
X192.94Y-99.36
T2
X168.91Y-81.28
X176.53Y-81.28
T3
X172.72Y-95.25
X175.26Y-95.25
T4
X176.53Y-86.36
X176.53Y-88.9
X153.67Y-90.17
T5
X193.04Y-77.47
X193.04Y-90.17
T6
X169.316Y-77.47
X169.316Y-100.965
T0
M30
