G04 #@! TF.GenerationSoftware,KiCad,Pcbnew,(5.0.2)-1*
G04 #@! TF.CreationDate,2019-06-19T11:59:55+10:00*
G04 #@! TF.ProjectId,C-Beeper,432d4265-6570-4657-922e-6b696361645f,rev?*
G04 #@! TF.SameCoordinates,Original*
G04 #@! TF.FileFunction,Legend,Bot*
G04 #@! TF.FilePolarity,Positive*
%FSLAX46Y46*%
G04 Gerber Fmt 4.6, Leading zero omitted, Abs format (unit mm)*
G04 Created by KiCad (PCBNEW (5.0.2)-1) date 19/06/2019 11:59:55 AM*
%MOMM*%
%LPD*%
G01*
G04 APERTURE LIST*
%ADD10C,0.120000*%
%ADD11C,0.150000*%
G04 APERTURE END LIST*
D10*
G04 #@! TO.C,BT1*
X142540000Y-109120000D02*
X142540000Y-71420000D01*
X195740000Y-109120000D02*
X142540000Y-109120000D01*
X195740000Y-71420000D02*
X195740000Y-109120000D01*
X142540000Y-71420000D02*
X195740000Y-71420000D01*
X160274000Y-98425000D02*
X160274000Y-99695000D01*
X178054000Y-98425000D02*
X160274000Y-98425000D01*
X178054000Y-99695000D02*
X178054000Y-98425000D01*
X179324000Y-99695000D02*
X178054000Y-99695000D01*
X179324000Y-102235000D02*
X179324000Y-99695000D01*
X178054000Y-102235000D02*
X179324000Y-102235000D01*
X178054000Y-103505000D02*
X178054000Y-102235000D01*
X160274000Y-103505000D02*
X178054000Y-103505000D01*
X160274000Y-99695000D02*
X160274000Y-103505000D01*
X160274000Y-99695000D02*
X160274000Y-103505000D01*
X160274000Y-103505000D02*
X178054000Y-103505000D01*
X178054000Y-103505000D02*
X178054000Y-102235000D01*
X178054000Y-102235000D02*
X179324000Y-102235000D01*
X179324000Y-102235000D02*
X179324000Y-99695000D01*
X179324000Y-99695000D02*
X178054000Y-99695000D01*
X178054000Y-99695000D02*
X178054000Y-98425000D01*
X178054000Y-98425000D02*
X160274000Y-98425000D01*
X160274000Y-98425000D02*
X160274000Y-99695000D01*
X160020000Y-74930000D02*
X160020000Y-76200000D01*
X177800000Y-74930000D02*
X160020000Y-74930000D01*
X177800000Y-76200000D02*
X177800000Y-74930000D01*
X179070000Y-76200000D02*
X177800000Y-76200000D01*
X179070000Y-78740000D02*
X179070000Y-76200000D01*
X177800000Y-78740000D02*
X179070000Y-78740000D01*
X177800000Y-80010000D02*
X177800000Y-78740000D01*
X160020000Y-80010000D02*
X177800000Y-80010000D01*
X160020000Y-76200000D02*
X160020000Y-80010000D01*
X194310000Y-95250000D02*
X194310000Y-108140500D01*
X144780000Y-95250000D02*
X144780000Y-108150000D01*
X179070000Y-92710000D02*
X179070000Y-87630000D01*
X179070000Y-87630000D02*
X161290000Y-87630000D01*
X161290000Y-87630000D02*
X161290000Y-88900000D01*
X161290000Y-88900000D02*
X160020000Y-88900000D01*
X160020000Y-88900000D02*
X160020000Y-91440000D01*
X160020000Y-91440000D02*
X161290000Y-91440000D01*
X161290000Y-91440000D02*
X161290000Y-92710000D01*
X161290000Y-92710000D02*
X179070000Y-92710000D01*
X160020000Y-76200000D02*
X160020000Y-80010000D01*
X160020000Y-80010000D02*
X177800000Y-80010000D01*
X177800000Y-80010000D02*
X177800000Y-78740000D01*
X177800000Y-78740000D02*
X179070000Y-78740000D01*
X179070000Y-78740000D02*
X179070000Y-76200000D01*
X179070000Y-76200000D02*
X177800000Y-76200000D01*
X177800000Y-76200000D02*
X177800000Y-74930000D01*
X177800000Y-74930000D02*
X160020000Y-74930000D01*
X160020000Y-74930000D02*
X160020000Y-76200000D01*
X179070000Y-106880000D02*
X179070000Y-108150000D01*
X179070000Y-108150000D02*
X160020000Y-108150000D01*
X160020000Y-108150000D02*
X160020000Y-106880000D01*
X147320000Y-73660000D02*
X160020000Y-73660000D01*
X160020000Y-73660000D02*
X160020000Y-72390000D01*
X160020000Y-72390000D02*
X179070000Y-72390000D01*
X179070000Y-72390000D02*
X179070000Y-73660000D01*
X147320000Y-106880000D02*
X160020000Y-106880000D01*
X191770000Y-73660000D02*
X179070000Y-73660000D01*
X191770000Y-73660000D02*
X191770000Y-72390000D01*
X191770000Y-72390000D02*
X194310000Y-72390000D01*
X194310000Y-72390000D02*
X194310000Y-95250000D01*
X194310000Y-108140500D02*
X191770000Y-108140500D01*
X191770000Y-108140500D02*
X191770000Y-106880000D01*
X191770000Y-106880000D02*
X179070000Y-106880000D01*
X144780000Y-72390000D02*
X147320000Y-72390000D01*
X147320000Y-72390000D02*
X147320000Y-73660000D01*
X144780000Y-72390000D02*
X144780000Y-95250000D01*
X144780000Y-108150000D02*
X147320000Y-108150000D01*
X147320000Y-108150000D02*
X147320000Y-106880000D01*
D11*
X193190714Y-74858571D02*
X193047857Y-74906190D01*
X193000238Y-74953809D01*
X192952619Y-75049047D01*
X192952619Y-75191904D01*
X193000238Y-75287142D01*
X193047857Y-75334761D01*
X193143095Y-75382380D01*
X193524047Y-75382380D01*
X193524047Y-74382380D01*
X193190714Y-74382380D01*
X193095476Y-74430000D01*
X193047857Y-74477619D01*
X193000238Y-74572857D01*
X193000238Y-74668095D01*
X193047857Y-74763333D01*
X193095476Y-74810952D01*
X193190714Y-74858571D01*
X193524047Y-74858571D01*
X192666904Y-74382380D02*
X192095476Y-74382380D01*
X192381190Y-75382380D02*
X192381190Y-74382380D01*
X191238333Y-75382380D02*
X191809761Y-75382380D01*
X191524047Y-75382380D02*
X191524047Y-74382380D01*
X191619285Y-74525238D01*
X191714523Y-74620476D01*
X191809761Y-74668095D01*
X180911428Y-77577142D02*
X179768571Y-77577142D01*
X180340000Y-78148571D02*
X180340000Y-77005714D01*
X159321428Y-90277142D02*
X158178571Y-90277142D01*
X158750000Y-90848571D02*
X158750000Y-89705714D01*
X180911428Y-101072142D02*
X179768571Y-101072142D01*
X180340000Y-101643571D02*
X180340000Y-100500714D01*
X180911428Y-90277142D02*
X179768571Y-90277142D01*
X159321428Y-101072142D02*
X158178571Y-101072142D01*
X159321428Y-77577142D02*
X158178571Y-77577142D01*
X191071428Y-90277142D02*
X189928571Y-90277142D01*
X191071428Y-77577142D02*
X189928571Y-77577142D01*
X190500000Y-78148571D02*
X190500000Y-77005714D01*
G04 #@! TD*
M02*
