G04 #@! TF.GenerationSoftware,KiCad,Pcbnew,(5.0.2)-1*
G04 #@! TF.CreationDate,2019-06-19T11:59:55+10:00*
G04 #@! TF.ProjectId,C-Beeper,432d4265-6570-4657-922e-6b696361645f,rev?*
G04 #@! TF.SameCoordinates,Original*
G04 #@! TF.FileFunction,Soldermask,Top*
G04 #@! TF.FilePolarity,Negative*
%FSLAX46Y46*%
G04 Gerber Fmt 4.6, Leading zero omitted, Abs format (unit mm)*
G04 Created by KiCad (PCBNEW (5.0.2)-1) date 19/06/2019 11:59:55 AM*
%MOMM*%
%LPD*%
G01*
G04 APERTURE LIST*
%ADD10C,0.100000*%
G04 APERTURE END LIST*
D10*
G36*
X154305000Y-88900000D02*
X143510000Y-88900000D01*
X143510000Y-91440000D01*
X154305000Y-91440000D01*
X154305000Y-88900000D01*
G37*
X154305000Y-88900000D02*
X143510000Y-88900000D01*
X143510000Y-91440000D01*
X154305000Y-91440000D01*
X154305000Y-88900000D01*
G36*
X169841731Y-99233211D02*
X170169492Y-99368974D01*
X170464473Y-99566074D01*
X170715326Y-99816927D01*
X170912426Y-100111908D01*
X171048189Y-100439669D01*
X171117400Y-100787616D01*
X171117400Y-101142384D01*
X171048189Y-101490331D01*
X170912426Y-101818092D01*
X170715326Y-102113073D01*
X170464473Y-102363926D01*
X170169492Y-102561026D01*
X169841731Y-102696789D01*
X169493784Y-102766000D01*
X169139016Y-102766000D01*
X168791069Y-102696789D01*
X168463308Y-102561026D01*
X168168327Y-102363926D01*
X167917474Y-102113073D01*
X167720374Y-101818092D01*
X167584611Y-101490331D01*
X167515400Y-101142384D01*
X167515400Y-100787616D01*
X167584611Y-100439669D01*
X167720374Y-100111908D01*
X167917474Y-99816927D01*
X168168327Y-99566074D01*
X168463308Y-99368974D01*
X168791069Y-99233211D01*
X169139016Y-99164000D01*
X169493784Y-99164000D01*
X169841731Y-99233211D01*
X169841731Y-99233211D01*
G37*
G36*
X168228677Y-95653465D02*
X168266364Y-95664898D01*
X168301103Y-95683466D01*
X168331548Y-95708452D01*
X168356534Y-95738897D01*
X168375102Y-95773636D01*
X168386535Y-95811323D01*
X168391000Y-95856661D01*
X168391000Y-96693339D01*
X168386535Y-96738677D01*
X168375102Y-96776364D01*
X168356534Y-96811103D01*
X168331548Y-96841548D01*
X168301103Y-96866534D01*
X168266364Y-96885102D01*
X168228677Y-96896535D01*
X168183339Y-96901000D01*
X167096661Y-96901000D01*
X167051323Y-96896535D01*
X167013636Y-96885102D01*
X166978897Y-96866534D01*
X166948452Y-96841548D01*
X166923466Y-96811103D01*
X166904898Y-96776364D01*
X166893465Y-96738677D01*
X166889000Y-96693339D01*
X166889000Y-95856661D01*
X166893465Y-95811323D01*
X166904898Y-95773636D01*
X166923466Y-95738897D01*
X166948452Y-95708452D01*
X166978897Y-95683466D01*
X167013636Y-95664898D01*
X167051323Y-95653465D01*
X167096661Y-95649000D01*
X168183339Y-95649000D01*
X168228677Y-95653465D01*
X168228677Y-95653465D01*
G37*
G36*
X173671000Y-96201000D02*
X171769000Y-96201000D01*
X171769000Y-94299000D01*
X173671000Y-94299000D01*
X173671000Y-96201000D01*
X173671000Y-96201000D01*
G37*
G36*
X175537396Y-94335546D02*
X175710466Y-94407234D01*
X175866230Y-94511312D01*
X175998688Y-94643770D01*
X176102766Y-94799534D01*
X176174454Y-94972604D01*
X176211000Y-95156333D01*
X176211000Y-95343667D01*
X176174454Y-95527396D01*
X176102766Y-95700466D01*
X175998688Y-95856230D01*
X175866230Y-95988688D01*
X175710466Y-96092766D01*
X175537396Y-96164454D01*
X175353667Y-96201000D01*
X175166333Y-96201000D01*
X174982604Y-96164454D01*
X174809534Y-96092766D01*
X174653770Y-95988688D01*
X174521312Y-95856230D01*
X174417234Y-95700466D01*
X174345546Y-95527396D01*
X174309000Y-95343667D01*
X174309000Y-95156333D01*
X174345546Y-94972604D01*
X174417234Y-94799534D01*
X174521312Y-94643770D01*
X174653770Y-94511312D01*
X174809534Y-94407234D01*
X174982604Y-94335546D01*
X175166333Y-94299000D01*
X175353667Y-94299000D01*
X175537396Y-94335546D01*
X175537396Y-94335546D01*
G37*
G36*
X164986000Y-96001000D02*
X163809000Y-96001000D01*
X163809000Y-94499000D01*
X164986000Y-94499000D01*
X164986000Y-96001000D01*
X164986000Y-96001000D01*
G37*
G36*
X161311000Y-96001000D02*
X160134000Y-96001000D01*
X160134000Y-94499000D01*
X161311000Y-94499000D01*
X161311000Y-96001000D01*
X161311000Y-96001000D01*
G37*
G36*
X180928677Y-94383465D02*
X180966364Y-94394898D01*
X181001103Y-94413466D01*
X181031548Y-94438452D01*
X181056534Y-94468897D01*
X181075102Y-94503636D01*
X181086535Y-94541323D01*
X181091000Y-94586661D01*
X181091000Y-95423339D01*
X181086535Y-95468677D01*
X181075102Y-95506364D01*
X181056534Y-95541103D01*
X181031548Y-95571548D01*
X181001103Y-95596534D01*
X180966364Y-95615102D01*
X180928677Y-95626535D01*
X180883339Y-95631000D01*
X179796661Y-95631000D01*
X179751323Y-95626535D01*
X179713636Y-95615102D01*
X179678897Y-95596534D01*
X179648452Y-95571548D01*
X179623466Y-95541103D01*
X179604898Y-95506364D01*
X179593465Y-95468677D01*
X179589000Y-95423339D01*
X179589000Y-94586661D01*
X179593465Y-94541323D01*
X179604898Y-94503636D01*
X179623466Y-94468897D01*
X179648452Y-94438452D01*
X179678897Y-94413466D01*
X179713636Y-94394898D01*
X179751323Y-94383465D01*
X179796661Y-94379000D01*
X180883339Y-94379000D01*
X180928677Y-94383465D01*
X180928677Y-94383465D01*
G37*
G36*
X168228677Y-93603465D02*
X168266364Y-93614898D01*
X168301103Y-93633466D01*
X168331548Y-93658452D01*
X168356534Y-93688897D01*
X168375102Y-93723636D01*
X168386535Y-93761323D01*
X168391000Y-93806661D01*
X168391000Y-94643339D01*
X168386535Y-94688677D01*
X168375102Y-94726364D01*
X168356534Y-94761103D01*
X168331548Y-94791548D01*
X168301103Y-94816534D01*
X168266364Y-94835102D01*
X168228677Y-94846535D01*
X168183339Y-94851000D01*
X167096661Y-94851000D01*
X167051323Y-94846535D01*
X167013636Y-94835102D01*
X166978897Y-94816534D01*
X166948452Y-94791548D01*
X166923466Y-94761103D01*
X166904898Y-94726364D01*
X166893465Y-94688677D01*
X166889000Y-94643339D01*
X166889000Y-93806661D01*
X166893465Y-93761323D01*
X166904898Y-93723636D01*
X166923466Y-93688897D01*
X166948452Y-93658452D01*
X166978897Y-93633466D01*
X167013636Y-93614898D01*
X167051323Y-93603465D01*
X167096661Y-93599000D01*
X168183339Y-93599000D01*
X168228677Y-93603465D01*
X168228677Y-93603465D01*
G37*
G36*
X180928677Y-92333465D02*
X180966364Y-92344898D01*
X181001103Y-92363466D01*
X181031548Y-92388452D01*
X181056534Y-92418897D01*
X181075102Y-92453636D01*
X181086535Y-92491323D01*
X181091000Y-92536661D01*
X181091000Y-93373339D01*
X181086535Y-93418677D01*
X181075102Y-93456364D01*
X181056534Y-93491103D01*
X181031548Y-93521548D01*
X181001103Y-93546534D01*
X180966364Y-93565102D01*
X180928677Y-93576535D01*
X180883339Y-93581000D01*
X179796661Y-93581000D01*
X179751323Y-93576535D01*
X179713636Y-93565102D01*
X179678897Y-93546534D01*
X179648452Y-93521548D01*
X179623466Y-93491103D01*
X179604898Y-93456364D01*
X179593465Y-93418677D01*
X179589000Y-93373339D01*
X179589000Y-92536661D01*
X179593465Y-92491323D01*
X179604898Y-92453636D01*
X179623466Y-92418897D01*
X179648452Y-92388452D01*
X179678897Y-92363466D01*
X179713636Y-92344898D01*
X179751323Y-92333465D01*
X179796661Y-92329000D01*
X180883339Y-92329000D01*
X180928677Y-92333465D01*
X180928677Y-92333465D01*
G37*
G36*
X193346565Y-89159389D02*
X193537834Y-89238615D01*
X193709976Y-89353637D01*
X193856363Y-89500024D01*
X193971385Y-89672166D01*
X194050611Y-89863435D01*
X194091000Y-90066484D01*
X194091000Y-90273516D01*
X194050611Y-90476565D01*
X193971385Y-90667834D01*
X193856363Y-90839976D01*
X193709976Y-90986363D01*
X193537834Y-91101385D01*
X193346565Y-91180611D01*
X193143516Y-91221000D01*
X192936484Y-91221000D01*
X192733435Y-91180611D01*
X192542166Y-91101385D01*
X192370024Y-90986363D01*
X192223637Y-90839976D01*
X192108615Y-90667834D01*
X192029389Y-90476565D01*
X191989000Y-90273516D01*
X191989000Y-90066484D01*
X192029389Y-89863435D01*
X192108615Y-89672166D01*
X192223637Y-89500024D01*
X192370024Y-89353637D01*
X192542166Y-89238615D01*
X192733435Y-89159389D01*
X192936484Y-89119000D01*
X193143516Y-89119000D01*
X193346565Y-89159389D01*
X193346565Y-89159389D01*
G37*
G36*
X154571000Y-91071000D02*
X152769000Y-91071000D01*
X152769000Y-89269000D01*
X154571000Y-89269000D01*
X154571000Y-91071000D01*
X154571000Y-91071000D01*
G37*
G36*
X162778677Y-89423465D02*
X162816364Y-89434898D01*
X162851103Y-89453466D01*
X162881548Y-89478452D01*
X162906534Y-89508897D01*
X162925102Y-89543636D01*
X162936535Y-89581323D01*
X162941000Y-89626661D01*
X162941000Y-90713339D01*
X162936535Y-90758677D01*
X162925102Y-90796364D01*
X162906534Y-90831103D01*
X162881548Y-90861548D01*
X162851103Y-90886534D01*
X162816364Y-90905102D01*
X162778677Y-90916535D01*
X162733339Y-90921000D01*
X161896661Y-90921000D01*
X161851323Y-90916535D01*
X161813636Y-90905102D01*
X161778897Y-90886534D01*
X161748452Y-90861548D01*
X161723466Y-90831103D01*
X161704898Y-90796364D01*
X161693465Y-90758677D01*
X161689000Y-90713339D01*
X161689000Y-89626661D01*
X161693465Y-89581323D01*
X161704898Y-89543636D01*
X161723466Y-89508897D01*
X161748452Y-89478452D01*
X161778897Y-89453466D01*
X161813636Y-89434898D01*
X161851323Y-89423465D01*
X161896661Y-89419000D01*
X162733339Y-89419000D01*
X162778677Y-89423465D01*
X162778677Y-89423465D01*
G37*
G36*
X160728677Y-89423465D02*
X160766364Y-89434898D01*
X160801103Y-89453466D01*
X160831548Y-89478452D01*
X160856534Y-89508897D01*
X160875102Y-89543636D01*
X160886535Y-89581323D01*
X160891000Y-89626661D01*
X160891000Y-90713339D01*
X160886535Y-90758677D01*
X160875102Y-90796364D01*
X160856534Y-90831103D01*
X160831548Y-90861548D01*
X160801103Y-90886534D01*
X160766364Y-90905102D01*
X160728677Y-90916535D01*
X160683339Y-90921000D01*
X159846661Y-90921000D01*
X159801323Y-90916535D01*
X159763636Y-90905102D01*
X159728897Y-90886534D01*
X159698452Y-90861548D01*
X159673466Y-90831103D01*
X159654898Y-90796364D01*
X159643465Y-90758677D01*
X159639000Y-90713339D01*
X159639000Y-89626661D01*
X159643465Y-89581323D01*
X159654898Y-89543636D01*
X159673466Y-89508897D01*
X159698452Y-89478452D01*
X159728897Y-89453466D01*
X159763636Y-89434898D01*
X159801323Y-89423465D01*
X159846661Y-89419000D01*
X160683339Y-89419000D01*
X160728677Y-89423465D01*
X160728677Y-89423465D01*
G37*
G36*
X170951000Y-90401000D02*
X170049000Y-90401000D01*
X170049000Y-89399000D01*
X170951000Y-89399000D01*
X170951000Y-90401000D01*
X170951000Y-90401000D01*
G37*
G36*
X172851000Y-90401000D02*
X171949000Y-90401000D01*
X171949000Y-89399000D01*
X172851000Y-89399000D01*
X172851000Y-90401000D01*
X172851000Y-90401000D01*
G37*
G36*
X182061000Y-90401000D02*
X181159000Y-90401000D01*
X181159000Y-89399000D01*
X182061000Y-89399000D01*
X182061000Y-90401000D01*
X182061000Y-90401000D01*
G37*
G36*
X165871000Y-90301000D02*
X164869000Y-90301000D01*
X164869000Y-89399000D01*
X165871000Y-89399000D01*
X165871000Y-90301000D01*
X165871000Y-90301000D01*
G37*
G36*
X176640443Y-88005519D02*
X176706627Y-88012037D01*
X176819853Y-88046384D01*
X176876467Y-88063557D01*
X177015087Y-88137652D01*
X177032991Y-88147222D01*
X177068729Y-88176552D01*
X177170186Y-88259814D01*
X177253448Y-88361271D01*
X177282778Y-88397009D01*
X177282779Y-88397011D01*
X177366443Y-88553533D01*
X177366443Y-88553534D01*
X177417963Y-88723373D01*
X177435359Y-88900000D01*
X177417963Y-89076627D01*
X177405109Y-89119000D01*
X177366443Y-89246467D01*
X177292348Y-89385087D01*
X177282778Y-89402991D01*
X177265975Y-89423465D01*
X177170186Y-89540186D01*
X177068729Y-89623448D01*
X177032991Y-89652778D01*
X177032989Y-89652779D01*
X176876467Y-89736443D01*
X176819853Y-89753616D01*
X176706627Y-89787963D01*
X176640443Y-89794481D01*
X176574260Y-89801000D01*
X176485740Y-89801000D01*
X176419557Y-89794481D01*
X176353373Y-89787963D01*
X176240147Y-89753616D01*
X176183533Y-89736443D01*
X176027011Y-89652779D01*
X176027009Y-89652778D01*
X175991271Y-89623448D01*
X175889814Y-89540186D01*
X175794025Y-89423465D01*
X175777222Y-89402991D01*
X175767652Y-89385087D01*
X175693557Y-89246467D01*
X175654891Y-89119000D01*
X175642037Y-89076627D01*
X175624641Y-88900000D01*
X175642037Y-88723373D01*
X175693557Y-88553534D01*
X175693557Y-88553533D01*
X175777221Y-88397011D01*
X175777222Y-88397009D01*
X175806552Y-88361271D01*
X175889814Y-88259814D01*
X175991271Y-88176552D01*
X176027009Y-88147222D01*
X176044913Y-88137652D01*
X176183533Y-88063557D01*
X176240147Y-88046384D01*
X176353373Y-88012037D01*
X176419557Y-88005519D01*
X176485740Y-87999000D01*
X176574260Y-87999000D01*
X176640443Y-88005519D01*
X176640443Y-88005519D01*
G37*
G36*
X167871000Y-89351000D02*
X166869000Y-89351000D01*
X166869000Y-88449000D01*
X167871000Y-88449000D01*
X167871000Y-89351000D01*
X167871000Y-89351000D01*
G37*
G36*
X181111000Y-88401000D02*
X180209000Y-88401000D01*
X180209000Y-87399000D01*
X181111000Y-87399000D01*
X181111000Y-88401000D01*
X181111000Y-88401000D01*
G37*
G36*
X165871000Y-88401000D02*
X164869000Y-88401000D01*
X164869000Y-87499000D01*
X165871000Y-87499000D01*
X165871000Y-88401000D01*
X165871000Y-88401000D01*
G37*
G36*
X183011000Y-88401000D02*
X182109000Y-88401000D01*
X182109000Y-87399000D01*
X183011000Y-87399000D01*
X183011000Y-88401000D01*
X183011000Y-88401000D01*
G37*
G36*
X171901000Y-88401000D02*
X170999000Y-88401000D01*
X170999000Y-87399000D01*
X171901000Y-87399000D01*
X171901000Y-88401000D01*
X171901000Y-88401000D01*
G37*
G36*
X177431000Y-87261000D02*
X175629000Y-87261000D01*
X175629000Y-85459000D01*
X177431000Y-85459000D01*
X177431000Y-87261000D01*
X177431000Y-87261000D01*
G37*
G36*
X171668677Y-84343465D02*
X171706364Y-84354898D01*
X171741103Y-84373466D01*
X171771548Y-84398452D01*
X171796534Y-84428897D01*
X171815102Y-84463636D01*
X171826535Y-84501323D01*
X171831000Y-84546661D01*
X171831000Y-85633339D01*
X171826535Y-85678677D01*
X171815102Y-85716364D01*
X171796534Y-85751103D01*
X171771548Y-85781548D01*
X171741103Y-85806534D01*
X171706364Y-85825102D01*
X171668677Y-85836535D01*
X171623339Y-85841000D01*
X170786661Y-85841000D01*
X170741323Y-85836535D01*
X170703636Y-85825102D01*
X170668897Y-85806534D01*
X170638452Y-85781548D01*
X170613466Y-85751103D01*
X170594898Y-85716364D01*
X170583465Y-85678677D01*
X170579000Y-85633339D01*
X170579000Y-84546661D01*
X170583465Y-84501323D01*
X170594898Y-84463636D01*
X170613466Y-84428897D01*
X170638452Y-84398452D01*
X170668897Y-84373466D01*
X170703636Y-84354898D01*
X170741323Y-84343465D01*
X170786661Y-84339000D01*
X171623339Y-84339000D01*
X171668677Y-84343465D01*
X171668677Y-84343465D01*
G37*
G36*
X169618677Y-84343465D02*
X169656364Y-84354898D01*
X169691103Y-84373466D01*
X169721548Y-84398452D01*
X169746534Y-84428897D01*
X169765102Y-84463636D01*
X169776535Y-84501323D01*
X169781000Y-84546661D01*
X169781000Y-85633339D01*
X169776535Y-85678677D01*
X169765102Y-85716364D01*
X169746534Y-85751103D01*
X169721548Y-85781548D01*
X169691103Y-85806534D01*
X169656364Y-85825102D01*
X169618677Y-85836535D01*
X169573339Y-85841000D01*
X168736661Y-85841000D01*
X168691323Y-85836535D01*
X168653636Y-85825102D01*
X168618897Y-85806534D01*
X168588452Y-85781548D01*
X168563466Y-85751103D01*
X168544898Y-85716364D01*
X168533465Y-85678677D01*
X168529000Y-85633339D01*
X168529000Y-84546661D01*
X168533465Y-84501323D01*
X168544898Y-84463636D01*
X168563466Y-84428897D01*
X168588452Y-84398452D01*
X168618897Y-84373466D01*
X168653636Y-84354898D01*
X168691323Y-84343465D01*
X168736661Y-84339000D01*
X169573339Y-84339000D01*
X169618677Y-84343465D01*
X169618677Y-84343465D01*
G37*
G36*
X160728677Y-84343465D02*
X160766364Y-84354898D01*
X160801103Y-84373466D01*
X160831548Y-84398452D01*
X160856534Y-84428897D01*
X160875102Y-84463636D01*
X160886535Y-84501323D01*
X160891000Y-84546661D01*
X160891000Y-85633339D01*
X160886535Y-85678677D01*
X160875102Y-85716364D01*
X160856534Y-85751103D01*
X160831548Y-85781548D01*
X160801103Y-85806534D01*
X160766364Y-85825102D01*
X160728677Y-85836535D01*
X160683339Y-85841000D01*
X159846661Y-85841000D01*
X159801323Y-85836535D01*
X159763636Y-85825102D01*
X159728897Y-85806534D01*
X159698452Y-85781548D01*
X159673466Y-85751103D01*
X159654898Y-85716364D01*
X159643465Y-85678677D01*
X159639000Y-85633339D01*
X159639000Y-84546661D01*
X159643465Y-84501323D01*
X159654898Y-84463636D01*
X159673466Y-84428897D01*
X159698452Y-84398452D01*
X159728897Y-84373466D01*
X159763636Y-84354898D01*
X159801323Y-84343465D01*
X159846661Y-84339000D01*
X160683339Y-84339000D01*
X160728677Y-84343465D01*
X160728677Y-84343465D01*
G37*
G36*
X162778677Y-84343465D02*
X162816364Y-84354898D01*
X162851103Y-84373466D01*
X162881548Y-84398452D01*
X162906534Y-84428897D01*
X162925102Y-84463636D01*
X162936535Y-84501323D01*
X162941000Y-84546661D01*
X162941000Y-85633339D01*
X162936535Y-85678677D01*
X162925102Y-85716364D01*
X162906534Y-85751103D01*
X162881548Y-85781548D01*
X162851103Y-85806534D01*
X162816364Y-85825102D01*
X162778677Y-85836535D01*
X162733339Y-85841000D01*
X161896661Y-85841000D01*
X161851323Y-85836535D01*
X161813636Y-85825102D01*
X161778897Y-85806534D01*
X161748452Y-85781548D01*
X161723466Y-85751103D01*
X161704898Y-85716364D01*
X161693465Y-85678677D01*
X161689000Y-85633339D01*
X161689000Y-84546661D01*
X161693465Y-84501323D01*
X161704898Y-84463636D01*
X161723466Y-84428897D01*
X161748452Y-84398452D01*
X161778897Y-84373466D01*
X161813636Y-84354898D01*
X161851323Y-84343465D01*
X161896661Y-84339000D01*
X162733339Y-84339000D01*
X162778677Y-84343465D01*
X162778677Y-84343465D01*
G37*
G36*
X165688677Y-84223465D02*
X165726364Y-84234898D01*
X165761103Y-84253466D01*
X165791548Y-84278452D01*
X165816534Y-84308897D01*
X165835102Y-84343636D01*
X165846535Y-84381323D01*
X165851000Y-84426661D01*
X165851000Y-85263339D01*
X165846535Y-85308677D01*
X165835102Y-85346364D01*
X165816534Y-85381103D01*
X165791548Y-85411548D01*
X165761103Y-85436534D01*
X165726364Y-85455102D01*
X165688677Y-85466535D01*
X165643339Y-85471000D01*
X164556661Y-85471000D01*
X164511323Y-85466535D01*
X164473636Y-85455102D01*
X164438897Y-85436534D01*
X164408452Y-85411548D01*
X164383466Y-85381103D01*
X164364898Y-85346364D01*
X164353465Y-85308677D01*
X164349000Y-85263339D01*
X164349000Y-84426661D01*
X164353465Y-84381323D01*
X164364898Y-84343636D01*
X164383466Y-84308897D01*
X164408452Y-84278452D01*
X164438897Y-84253466D01*
X164473636Y-84234898D01*
X164511323Y-84223465D01*
X164556661Y-84219000D01*
X165643339Y-84219000D01*
X165688677Y-84223465D01*
X165688677Y-84223465D01*
G37*
G36*
X188548677Y-84223465D02*
X188586364Y-84234898D01*
X188621103Y-84253466D01*
X188651548Y-84278452D01*
X188676534Y-84308897D01*
X188695102Y-84343636D01*
X188706535Y-84381323D01*
X188711000Y-84426661D01*
X188711000Y-85263339D01*
X188706535Y-85308677D01*
X188695102Y-85346364D01*
X188676534Y-85381103D01*
X188651548Y-85411548D01*
X188621103Y-85436534D01*
X188586364Y-85455102D01*
X188548677Y-85466535D01*
X188503339Y-85471000D01*
X187416661Y-85471000D01*
X187371323Y-85466535D01*
X187333636Y-85455102D01*
X187298897Y-85436534D01*
X187268452Y-85411548D01*
X187243466Y-85381103D01*
X187224898Y-85346364D01*
X187213465Y-85308677D01*
X187209000Y-85263339D01*
X187209000Y-84426661D01*
X187213465Y-84381323D01*
X187224898Y-84343636D01*
X187243466Y-84308897D01*
X187268452Y-84278452D01*
X187298897Y-84253466D01*
X187333636Y-84234898D01*
X187371323Y-84223465D01*
X187416661Y-84219000D01*
X188503339Y-84219000D01*
X188548677Y-84223465D01*
X188548677Y-84223465D01*
G37*
G36*
X184738677Y-84223465D02*
X184776364Y-84234898D01*
X184811103Y-84253466D01*
X184841548Y-84278452D01*
X184866534Y-84308897D01*
X184885102Y-84343636D01*
X184896535Y-84381323D01*
X184901000Y-84426661D01*
X184901000Y-85263339D01*
X184896535Y-85308677D01*
X184885102Y-85346364D01*
X184866534Y-85381103D01*
X184841548Y-85411548D01*
X184811103Y-85436534D01*
X184776364Y-85455102D01*
X184738677Y-85466535D01*
X184693339Y-85471000D01*
X183606661Y-85471000D01*
X183561323Y-85466535D01*
X183523636Y-85455102D01*
X183488897Y-85436534D01*
X183458452Y-85411548D01*
X183433466Y-85381103D01*
X183414898Y-85346364D01*
X183403465Y-85308677D01*
X183399000Y-85263339D01*
X183399000Y-84426661D01*
X183403465Y-84381323D01*
X183414898Y-84343636D01*
X183433466Y-84308897D01*
X183458452Y-84278452D01*
X183488897Y-84253466D01*
X183523636Y-84234898D01*
X183561323Y-84223465D01*
X183606661Y-84219000D01*
X184693339Y-84219000D01*
X184738677Y-84223465D01*
X184738677Y-84223465D01*
G37*
G36*
X184738677Y-82173465D02*
X184776364Y-82184898D01*
X184811103Y-82203466D01*
X184841548Y-82228452D01*
X184866534Y-82258897D01*
X184885102Y-82293636D01*
X184896535Y-82331323D01*
X184901000Y-82376661D01*
X184901000Y-83213339D01*
X184896535Y-83258677D01*
X184885102Y-83296364D01*
X184866534Y-83331103D01*
X184841548Y-83361548D01*
X184811103Y-83386534D01*
X184776364Y-83405102D01*
X184738677Y-83416535D01*
X184693339Y-83421000D01*
X183606661Y-83421000D01*
X183561323Y-83416535D01*
X183523636Y-83405102D01*
X183488897Y-83386534D01*
X183458452Y-83361548D01*
X183433466Y-83331103D01*
X183414898Y-83296364D01*
X183403465Y-83258677D01*
X183399000Y-83213339D01*
X183399000Y-82376661D01*
X183403465Y-82331323D01*
X183414898Y-82293636D01*
X183433466Y-82258897D01*
X183458452Y-82228452D01*
X183488897Y-82203466D01*
X183523636Y-82184898D01*
X183561323Y-82173465D01*
X183606661Y-82169000D01*
X184693339Y-82169000D01*
X184738677Y-82173465D01*
X184738677Y-82173465D01*
G37*
G36*
X165688677Y-82173465D02*
X165726364Y-82184898D01*
X165761103Y-82203466D01*
X165791548Y-82228452D01*
X165816534Y-82258897D01*
X165835102Y-82293636D01*
X165846535Y-82331323D01*
X165851000Y-82376661D01*
X165851000Y-83213339D01*
X165846535Y-83258677D01*
X165835102Y-83296364D01*
X165816534Y-83331103D01*
X165791548Y-83361548D01*
X165761103Y-83386534D01*
X165726364Y-83405102D01*
X165688677Y-83416535D01*
X165643339Y-83421000D01*
X164556661Y-83421000D01*
X164511323Y-83416535D01*
X164473636Y-83405102D01*
X164438897Y-83386534D01*
X164408452Y-83361548D01*
X164383466Y-83331103D01*
X164364898Y-83296364D01*
X164353465Y-83258677D01*
X164349000Y-83213339D01*
X164349000Y-82376661D01*
X164353465Y-82331323D01*
X164364898Y-82293636D01*
X164383466Y-82258897D01*
X164408452Y-82228452D01*
X164438897Y-82203466D01*
X164473636Y-82184898D01*
X164511323Y-82173465D01*
X164556661Y-82169000D01*
X165643339Y-82169000D01*
X165688677Y-82173465D01*
X165688677Y-82173465D01*
G37*
G36*
X188548677Y-82173465D02*
X188586364Y-82184898D01*
X188621103Y-82203466D01*
X188651548Y-82228452D01*
X188676534Y-82258897D01*
X188695102Y-82293636D01*
X188706535Y-82331323D01*
X188711000Y-82376661D01*
X188711000Y-83213339D01*
X188706535Y-83258677D01*
X188695102Y-83296364D01*
X188676534Y-83331103D01*
X188651548Y-83361548D01*
X188621103Y-83386534D01*
X188586364Y-83405102D01*
X188548677Y-83416535D01*
X188503339Y-83421000D01*
X187416661Y-83421000D01*
X187371323Y-83416535D01*
X187333636Y-83405102D01*
X187298897Y-83386534D01*
X187268452Y-83361548D01*
X187243466Y-83331103D01*
X187224898Y-83296364D01*
X187213465Y-83258677D01*
X187209000Y-83213339D01*
X187209000Y-82376661D01*
X187213465Y-82331323D01*
X187224898Y-82293636D01*
X187243466Y-82258897D01*
X187268452Y-82228452D01*
X187298897Y-82203466D01*
X187333636Y-82184898D01*
X187371323Y-82173465D01*
X187416661Y-82169000D01*
X188503339Y-82169000D01*
X188548677Y-82173465D01*
X188548677Y-82173465D01*
G37*
G36*
X179778677Y-81803465D02*
X179816364Y-81814898D01*
X179851103Y-81833466D01*
X179881548Y-81858452D01*
X179906534Y-81888897D01*
X179925102Y-81923636D01*
X179936535Y-81961323D01*
X179941000Y-82006661D01*
X179941000Y-83093339D01*
X179936535Y-83138677D01*
X179925102Y-83176364D01*
X179906534Y-83211103D01*
X179881548Y-83241548D01*
X179851103Y-83266534D01*
X179816364Y-83285102D01*
X179778677Y-83296535D01*
X179733339Y-83301000D01*
X178896661Y-83301000D01*
X178851323Y-83296535D01*
X178813636Y-83285102D01*
X178778897Y-83266534D01*
X178748452Y-83241548D01*
X178723466Y-83211103D01*
X178704898Y-83176364D01*
X178693465Y-83138677D01*
X178689000Y-83093339D01*
X178689000Y-82006661D01*
X178693465Y-81961323D01*
X178704898Y-81923636D01*
X178723466Y-81888897D01*
X178748452Y-81858452D01*
X178778897Y-81833466D01*
X178813636Y-81814898D01*
X178851323Y-81803465D01*
X178896661Y-81799000D01*
X179733339Y-81799000D01*
X179778677Y-81803465D01*
X179778677Y-81803465D01*
G37*
G36*
X181828677Y-81803465D02*
X181866364Y-81814898D01*
X181901103Y-81833466D01*
X181931548Y-81858452D01*
X181956534Y-81888897D01*
X181975102Y-81923636D01*
X181986535Y-81961323D01*
X181991000Y-82006661D01*
X181991000Y-83093339D01*
X181986535Y-83138677D01*
X181975102Y-83176364D01*
X181956534Y-83211103D01*
X181931548Y-83241548D01*
X181901103Y-83266534D01*
X181866364Y-83285102D01*
X181828677Y-83296535D01*
X181783339Y-83301000D01*
X180946661Y-83301000D01*
X180901323Y-83296535D01*
X180863636Y-83285102D01*
X180828897Y-83266534D01*
X180798452Y-83241548D01*
X180773466Y-83211103D01*
X180754898Y-83176364D01*
X180743465Y-83138677D01*
X180739000Y-83093339D01*
X180739000Y-82006661D01*
X180743465Y-81961323D01*
X180754898Y-81923636D01*
X180773466Y-81888897D01*
X180798452Y-81858452D01*
X180828897Y-81833466D01*
X180863636Y-81814898D01*
X180901323Y-81803465D01*
X180946661Y-81799000D01*
X181783339Y-81799000D01*
X181828677Y-81803465D01*
X181828677Y-81803465D01*
G37*
G36*
X176696821Y-80441313D02*
X176696824Y-80441314D01*
X176696825Y-80441314D01*
X176857239Y-80489975D01*
X176857241Y-80489976D01*
X176857244Y-80489977D01*
X177005078Y-80568995D01*
X177134659Y-80675341D01*
X177241005Y-80804922D01*
X177320023Y-80952756D01*
X177368687Y-81113179D01*
X177385117Y-81280000D01*
X177368687Y-81446821D01*
X177320023Y-81607244D01*
X177241005Y-81755078D01*
X177134659Y-81884659D01*
X177005078Y-81991005D01*
X176857244Y-82070023D01*
X176857241Y-82070024D01*
X176857239Y-82070025D01*
X176696825Y-82118686D01*
X176696824Y-82118686D01*
X176696821Y-82118687D01*
X176571804Y-82131000D01*
X176488196Y-82131000D01*
X176363179Y-82118687D01*
X176363176Y-82118686D01*
X176363175Y-82118686D01*
X176202761Y-82070025D01*
X176202759Y-82070024D01*
X176202756Y-82070023D01*
X176054922Y-81991005D01*
X175925341Y-81884659D01*
X175818995Y-81755078D01*
X175739977Y-81607244D01*
X175691313Y-81446821D01*
X175674883Y-81280000D01*
X175691313Y-81113179D01*
X175739977Y-80952756D01*
X175818995Y-80804922D01*
X175925341Y-80675341D01*
X176054922Y-80568995D01*
X176202756Y-80489977D01*
X176202759Y-80489976D01*
X176202761Y-80489975D01*
X176363175Y-80441314D01*
X176363176Y-80441314D01*
X176363179Y-80441313D01*
X176488196Y-80429000D01*
X176571804Y-80429000D01*
X176696821Y-80441313D01*
X176696821Y-80441313D01*
G37*
G36*
X169761000Y-82131000D02*
X168059000Y-82131000D01*
X168059000Y-80429000D01*
X169761000Y-80429000D01*
X169761000Y-82131000D01*
X169761000Y-82131000D01*
G37*
G36*
X169841731Y-75738211D02*
X170169492Y-75873974D01*
X170464473Y-76071074D01*
X170715326Y-76321927D01*
X170912426Y-76616908D01*
X171048189Y-76944669D01*
X171117400Y-77292616D01*
X171117400Y-77647384D01*
X171048189Y-77995331D01*
X170912426Y-78323092D01*
X170715326Y-78618073D01*
X170464473Y-78868926D01*
X170169492Y-79066026D01*
X169841731Y-79201789D01*
X169493784Y-79271000D01*
X169139016Y-79271000D01*
X168791069Y-79201789D01*
X168463308Y-79066026D01*
X168168327Y-78868926D01*
X167917474Y-78618073D01*
X167720374Y-78323092D01*
X167584611Y-77995331D01*
X167515400Y-77647384D01*
X167515400Y-77292616D01*
X167584611Y-76944669D01*
X167720374Y-76616908D01*
X167917474Y-76321927D01*
X168168327Y-76071074D01*
X168463308Y-75873974D01*
X168791069Y-75738211D01*
X169139016Y-75669000D01*
X169493784Y-75669000D01*
X169841731Y-75738211D01*
X169841731Y-75738211D01*
G37*
G36*
X194091000Y-78521000D02*
X191989000Y-78521000D01*
X191989000Y-76419000D01*
X194091000Y-76419000D01*
X194091000Y-78521000D01*
X194091000Y-78521000D01*
G37*
M02*
